<?xml version="1.0" encoding="utf-8" standalone="no"?>
<!DOCTYPE svg PUBLIC "-//W3C//DTD SVG 1.1//EN"
  "http://www.w3.org/Graphics/SVG/1.1/DTD/svg11.dtd">
<!-- Created with matplotlib (https://matplotlib.org/) -->
<svg height="432pt" version="1.1" viewBox="0 0 720 432" width="720pt" xmlns="http://www.w3.org/2000/svg" xmlns:xlink="http://www.w3.org/1999/xlink">
 <defs>
  <style type="text/css">
*{stroke-linecap:butt;stroke-linejoin:round;}
  </style>
 </defs>
 <g id="figure_1">
  <g id="patch_1">
   <path d="M 0 432 
L 720 432 
L 720 0 
L 0 0 
z
" style="fill:#ffffff;"/>
  </g>
  <g id="axes_1">
   <g id="patch_2">
    <path d="M 90 378 
L 648 378 
L 648 51.84 
L 90 51.84 
z
" style="fill:#ffffff;"/>
   </g>
   <g id="matplotlib.axis_1">
    <g id="xtick_1">
     <g id="line2d_1">
      <defs>
       <path d="M 0 0 
L 0 3.5 
" id="m18e5ea1fd7" style="stroke:#000000;stroke-width:0.8;"/>
      </defs>
      <g>
       <use style="stroke:#000000;stroke-width:0.8;" x="90" xlink:href="#m18e5ea1fd7" y="378"/>
      </g>
     </g>
     <g id="text_1">
      <!-- 0 -->
      <defs>
       <path d="M 31.78125 66.40625 
Q 24.171875 66.40625 20.328125 58.90625 
Q 16.5 51.421875 16.5 36.375 
Q 16.5 21.390625 20.328125 13.890625 
Q 24.171875 6.390625 31.78125 6.390625 
Q 39.453125 6.390625 43.28125 13.890625 
Q 47.125 21.390625 47.125 36.375 
Q 47.125 51.421875 43.28125 58.90625 
Q 39.453125 66.40625 31.78125 66.40625 
z
M 31.78125 74.21875 
Q 44.046875 74.21875 50.515625 64.515625 
Q 56.984375 54.828125 56.984375 36.375 
Q 56.984375 17.96875 50.515625 8.265625 
Q 44.046875 -1.421875 31.78125 -1.421875 
Q 19.53125 -1.421875 13.0625 8.265625 
Q 6.59375 17.96875 6.59375 36.375 
Q 6.59375 54.828125 13.0625 64.515625 
Q 19.53125 74.21875 31.78125 74.21875 
z
" id="DejaVuSans-48"/>
      </defs>
      <g transform="translate(84.91 397.1575)scale(0.16 -0.16)">
       <use xlink:href="#DejaVuSans-48"/>
      </g>
     </g>
    </g>
    <g id="xtick_2">
     <g id="line2d_2">
      <g>
       <use style="stroke:#000000;stroke-width:0.8;" x="162" xlink:href="#m18e5ea1fd7" y="378"/>
      </g>
     </g>
     <g id="text_2">
      <!-- 200 -->
      <defs>
       <path d="M 19.1875 8.296875 
L 53.609375 8.296875 
L 53.609375 0 
L 7.328125 0 
L 7.328125 8.296875 
Q 12.9375 14.109375 22.625 23.890625 
Q 32.328125 33.6875 34.8125 36.53125 
Q 39.546875 41.84375 41.421875 45.53125 
Q 43.3125 49.21875 43.3125 52.78125 
Q 43.3125 58.59375 39.234375 62.25 
Q 35.15625 65.921875 28.609375 65.921875 
Q 23.96875 65.921875 18.8125 64.3125 
Q 13.671875 62.703125 7.8125 59.421875 
L 7.8125 69.390625 
Q 13.765625 71.78125 18.9375 73 
Q 24.125 74.21875 28.421875 74.21875 
Q 39.75 74.21875 46.484375 68.546875 
Q 53.21875 62.890625 53.21875 53.421875 
Q 53.21875 48.921875 51.53125 44.890625 
Q 49.859375 40.875 45.40625 35.40625 
Q 44.1875 33.984375 37.640625 27.21875 
Q 31.109375 20.453125 19.1875 8.296875 
z
" id="DejaVuSans-50"/>
      </defs>
      <g transform="translate(146.73 397.1575)scale(0.16 -0.16)">
       <use xlink:href="#DejaVuSans-50"/>
       <use x="63.623047" xlink:href="#DejaVuSans-48"/>
       <use x="127.246094" xlink:href="#DejaVuSans-48"/>
      </g>
     </g>
    </g>
    <g id="xtick_3">
     <g id="line2d_3">
      <g>
       <use style="stroke:#000000;stroke-width:0.8;" x="234" xlink:href="#m18e5ea1fd7" y="378"/>
      </g>
     </g>
     <g id="text_3">
      <!-- 400 -->
      <defs>
       <path d="M 37.796875 64.3125 
L 12.890625 25.390625 
L 37.796875 25.390625 
z
M 35.203125 72.90625 
L 47.609375 72.90625 
L 47.609375 25.390625 
L 58.015625 25.390625 
L 58.015625 17.1875 
L 47.609375 17.1875 
L 47.609375 0 
L 37.796875 0 
L 37.796875 17.1875 
L 4.890625 17.1875 
L 4.890625 26.703125 
z
" id="DejaVuSans-52"/>
      </defs>
      <g transform="translate(218.73 397.1575)scale(0.16 -0.16)">
       <use xlink:href="#DejaVuSans-52"/>
       <use x="63.623047" xlink:href="#DejaVuSans-48"/>
       <use x="127.246094" xlink:href="#DejaVuSans-48"/>
      </g>
     </g>
    </g>
    <g id="xtick_4">
     <g id="line2d_4">
      <g>
       <use style="stroke:#000000;stroke-width:0.8;" x="306" xlink:href="#m18e5ea1fd7" y="378"/>
      </g>
     </g>
     <g id="text_4">
      <!-- 600 -->
      <defs>
       <path d="M 33.015625 40.375 
Q 26.375 40.375 22.484375 35.828125 
Q 18.609375 31.296875 18.609375 23.390625 
Q 18.609375 15.53125 22.484375 10.953125 
Q 26.375 6.390625 33.015625 6.390625 
Q 39.65625 6.390625 43.53125 10.953125 
Q 47.40625 15.53125 47.40625 23.390625 
Q 47.40625 31.296875 43.53125 35.828125 
Q 39.65625 40.375 33.015625 40.375 
z
M 52.59375 71.296875 
L 52.59375 62.3125 
Q 48.875 64.0625 45.09375 64.984375 
Q 41.3125 65.921875 37.59375 65.921875 
Q 27.828125 65.921875 22.671875 59.328125 
Q 17.53125 52.734375 16.796875 39.40625 
Q 19.671875 43.65625 24.015625 45.921875 
Q 28.375 48.1875 33.59375 48.1875 
Q 44.578125 48.1875 50.953125 41.515625 
Q 57.328125 34.859375 57.328125 23.390625 
Q 57.328125 12.15625 50.6875 5.359375 
Q 44.046875 -1.421875 33.015625 -1.421875 
Q 20.359375 -1.421875 13.671875 8.265625 
Q 6.984375 17.96875 6.984375 36.375 
Q 6.984375 53.65625 15.1875 63.9375 
Q 23.390625 74.21875 37.203125 74.21875 
Q 40.921875 74.21875 44.703125 73.484375 
Q 48.484375 72.75 52.59375 71.296875 
z
" id="DejaVuSans-54"/>
      </defs>
      <g transform="translate(290.73 397.1575)scale(0.16 -0.16)">
       <use xlink:href="#DejaVuSans-54"/>
       <use x="63.623047" xlink:href="#DejaVuSans-48"/>
       <use x="127.246094" xlink:href="#DejaVuSans-48"/>
      </g>
     </g>
    </g>
    <g id="xtick_5">
     <g id="line2d_5">
      <g>
       <use style="stroke:#000000;stroke-width:0.8;" x="378" xlink:href="#m18e5ea1fd7" y="378"/>
      </g>
     </g>
     <g id="text_5">
      <!-- 800 -->
      <defs>
       <path d="M 31.78125 34.625 
Q 24.75 34.625 20.71875 30.859375 
Q 16.703125 27.09375 16.703125 20.515625 
Q 16.703125 13.921875 20.71875 10.15625 
Q 24.75 6.390625 31.78125 6.390625 
Q 38.8125 6.390625 42.859375 10.171875 
Q 46.921875 13.96875 46.921875 20.515625 
Q 46.921875 27.09375 42.890625 30.859375 
Q 38.875 34.625 31.78125 34.625 
z
M 21.921875 38.8125 
Q 15.578125 40.375 12.03125 44.71875 
Q 8.5 49.078125 8.5 55.328125 
Q 8.5 64.0625 14.71875 69.140625 
Q 20.953125 74.21875 31.78125 74.21875 
Q 42.671875 74.21875 48.875 69.140625 
Q 55.078125 64.0625 55.078125 55.328125 
Q 55.078125 49.078125 51.53125 44.71875 
Q 48 40.375 41.703125 38.8125 
Q 48.828125 37.15625 52.796875 32.3125 
Q 56.78125 27.484375 56.78125 20.515625 
Q 56.78125 9.90625 50.3125 4.234375 
Q 43.84375 -1.421875 31.78125 -1.421875 
Q 19.734375 -1.421875 13.25 4.234375 
Q 6.78125 9.90625 6.78125 20.515625 
Q 6.78125 27.484375 10.78125 32.3125 
Q 14.796875 37.15625 21.921875 38.8125 
z
M 18.3125 54.390625 
Q 18.3125 48.734375 21.84375 45.5625 
Q 25.390625 42.390625 31.78125 42.390625 
Q 38.140625 42.390625 41.71875 45.5625 
Q 45.3125 48.734375 45.3125 54.390625 
Q 45.3125 60.0625 41.71875 63.234375 
Q 38.140625 66.40625 31.78125 66.40625 
Q 25.390625 66.40625 21.84375 63.234375 
Q 18.3125 60.0625 18.3125 54.390625 
z
" id="DejaVuSans-56"/>
      </defs>
      <g transform="translate(362.73 397.1575)scale(0.16 -0.16)">
       <use xlink:href="#DejaVuSans-56"/>
       <use x="63.623047" xlink:href="#DejaVuSans-48"/>
       <use x="127.246094" xlink:href="#DejaVuSans-48"/>
      </g>
     </g>
    </g>
    <g id="xtick_6">
     <g id="line2d_6">
      <g>
       <use style="stroke:#000000;stroke-width:0.8;" x="450" xlink:href="#m18e5ea1fd7" y="378"/>
      </g>
     </g>
     <g id="text_6">
      <!-- 1000 -->
      <defs>
       <path d="M 12.40625 8.296875 
L 28.515625 8.296875 
L 28.515625 63.921875 
L 10.984375 60.40625 
L 10.984375 69.390625 
L 28.421875 72.90625 
L 38.28125 72.90625 
L 38.28125 8.296875 
L 54.390625 8.296875 
L 54.390625 0 
L 12.40625 0 
z
" id="DejaVuSans-49"/>
      </defs>
      <g transform="translate(429.64 397.1575)scale(0.16 -0.16)">
       <use xlink:href="#DejaVuSans-49"/>
       <use x="63.623047" xlink:href="#DejaVuSans-48"/>
       <use x="127.246094" xlink:href="#DejaVuSans-48"/>
       <use x="190.869141" xlink:href="#DejaVuSans-48"/>
      </g>
     </g>
    </g>
    <g id="xtick_7">
     <g id="line2d_7">
      <g>
       <use style="stroke:#000000;stroke-width:0.8;" x="522" xlink:href="#m18e5ea1fd7" y="378"/>
      </g>
     </g>
     <g id="text_7">
      <!-- 1200 -->
      <g transform="translate(501.64 397.1575)scale(0.16 -0.16)">
       <use xlink:href="#DejaVuSans-49"/>
       <use x="63.623047" xlink:href="#DejaVuSans-50"/>
       <use x="127.246094" xlink:href="#DejaVuSans-48"/>
       <use x="190.869141" xlink:href="#DejaVuSans-48"/>
      </g>
     </g>
    </g>
    <g id="xtick_8">
     <g id="line2d_8">
      <g>
       <use style="stroke:#000000;stroke-width:0.8;" x="594" xlink:href="#m18e5ea1fd7" y="378"/>
      </g>
     </g>
     <g id="text_8">
      <!-- 1400 -->
      <g transform="translate(573.64 397.1575)scale(0.16 -0.16)">
       <use xlink:href="#DejaVuSans-49"/>
       <use x="63.623047" xlink:href="#DejaVuSans-52"/>
       <use x="127.246094" xlink:href="#DejaVuSans-48"/>
       <use x="190.869141" xlink:href="#DejaVuSans-48"/>
      </g>
     </g>
    </g>
    <g id="text_9">
     <!-- Axial distance from needle tip ($\mu m$) -->
     <defs>
      <path d="M 34.1875 63.1875 
L 20.796875 26.90625 
L 47.609375 26.90625 
z
M 28.609375 72.90625 
L 39.796875 72.90625 
L 67.578125 0 
L 57.328125 0 
L 50.6875 18.703125 
L 17.828125 18.703125 
L 11.1875 0 
L 0.78125 0 
z
" id="DejaVuSans-65"/>
      <path d="M 54.890625 54.6875 
L 35.109375 28.078125 
L 55.90625 0 
L 45.3125 0 
L 29.390625 21.484375 
L 13.484375 0 
L 2.875 0 
L 24.125 28.609375 
L 4.6875 54.6875 
L 15.28125 54.6875 
L 29.78125 35.203125 
L 44.28125 54.6875 
z
" id="DejaVuSans-120"/>
      <path d="M 9.421875 54.6875 
L 18.40625 54.6875 
L 18.40625 0 
L 9.421875 0 
z
M 9.421875 75.984375 
L 18.40625 75.984375 
L 18.40625 64.59375 
L 9.421875 64.59375 
z
" id="DejaVuSans-105"/>
      <path d="M 34.28125 27.484375 
Q 23.390625 27.484375 19.1875 25 
Q 14.984375 22.515625 14.984375 16.5 
Q 14.984375 11.71875 18.140625 8.90625 
Q 21.296875 6.109375 26.703125 6.109375 
Q 34.1875 6.109375 38.703125 11.40625 
Q 43.21875 16.703125 43.21875 25.484375 
L 43.21875 27.484375 
z
M 52.203125 31.203125 
L 52.203125 0 
L 43.21875 0 
L 43.21875 8.296875 
Q 40.140625 3.328125 35.546875 0.953125 
Q 30.953125 -1.421875 24.3125 -1.421875 
Q 15.921875 -1.421875 10.953125 3.296875 
Q 6 8.015625 6 15.921875 
Q 6 25.140625 12.171875 29.828125 
Q 18.359375 34.515625 30.609375 34.515625 
L 43.21875 34.515625 
L 43.21875 35.40625 
Q 43.21875 41.609375 39.140625 45 
Q 35.0625 48.390625 27.6875 48.390625 
Q 23 48.390625 18.546875 47.265625 
Q 14.109375 46.140625 10.015625 43.890625 
L 10.015625 52.203125 
Q 14.9375 54.109375 19.578125 55.046875 
Q 24.21875 56 28.609375 56 
Q 40.484375 56 46.34375 49.84375 
Q 52.203125 43.703125 52.203125 31.203125 
z
" id="DejaVuSans-97"/>
      <path d="M 9.421875 75.984375 
L 18.40625 75.984375 
L 18.40625 0 
L 9.421875 0 
z
" id="DejaVuSans-108"/>
      <path id="DejaVuSans-32"/>
      <path d="M 45.40625 46.390625 
L 45.40625 75.984375 
L 54.390625 75.984375 
L 54.390625 0 
L 45.40625 0 
L 45.40625 8.203125 
Q 42.578125 3.328125 38.25 0.953125 
Q 33.9375 -1.421875 27.875 -1.421875 
Q 17.96875 -1.421875 11.734375 6.484375 
Q 5.515625 14.40625 5.515625 27.296875 
Q 5.515625 40.1875 11.734375 48.09375 
Q 17.96875 56 27.875 56 
Q 33.9375 56 38.25 53.625 
Q 42.578125 51.265625 45.40625 46.390625 
z
M 14.796875 27.296875 
Q 14.796875 17.390625 18.875 11.75 
Q 22.953125 6.109375 30.078125 6.109375 
Q 37.203125 6.109375 41.296875 11.75 
Q 45.40625 17.390625 45.40625 27.296875 
Q 45.40625 37.203125 41.296875 42.84375 
Q 37.203125 48.484375 30.078125 48.484375 
Q 22.953125 48.484375 18.875 42.84375 
Q 14.796875 37.203125 14.796875 27.296875 
z
" id="DejaVuSans-100"/>
      <path d="M 44.28125 53.078125 
L 44.28125 44.578125 
Q 40.484375 46.53125 36.375 47.5 
Q 32.28125 48.484375 27.875 48.484375 
Q 21.1875 48.484375 17.84375 46.4375 
Q 14.5 44.390625 14.5 40.28125 
Q 14.5 37.15625 16.890625 35.375 
Q 19.28125 33.59375 26.515625 31.984375 
L 29.59375 31.296875 
Q 39.15625 29.25 43.1875 25.515625 
Q 47.21875 21.78125 47.21875 15.09375 
Q 47.21875 7.46875 41.1875 3.015625 
Q 35.15625 -1.421875 24.609375 -1.421875 
Q 20.21875 -1.421875 15.453125 -0.5625 
Q 10.6875 0.296875 5.421875 2 
L 5.421875 11.28125 
Q 10.40625 8.6875 15.234375 7.390625 
Q 20.0625 6.109375 24.8125 6.109375 
Q 31.15625 6.109375 34.5625 8.28125 
Q 37.984375 10.453125 37.984375 14.40625 
Q 37.984375 18.0625 35.515625 20.015625 
Q 33.0625 21.96875 24.703125 23.78125 
L 21.578125 24.515625 
Q 13.234375 26.265625 9.515625 29.90625 
Q 5.8125 33.546875 5.8125 39.890625 
Q 5.8125 47.609375 11.28125 51.796875 
Q 16.75 56 26.8125 56 
Q 31.78125 56 36.171875 55.265625 
Q 40.578125 54.546875 44.28125 53.078125 
z
" id="DejaVuSans-115"/>
      <path d="M 18.3125 70.21875 
L 18.3125 54.6875 
L 36.8125 54.6875 
L 36.8125 47.703125 
L 18.3125 47.703125 
L 18.3125 18.015625 
Q 18.3125 11.328125 20.140625 9.421875 
Q 21.96875 7.515625 27.59375 7.515625 
L 36.8125 7.515625 
L 36.8125 0 
L 27.59375 0 
Q 17.1875 0 13.234375 3.875 
Q 9.28125 7.765625 9.28125 18.015625 
L 9.28125 47.703125 
L 2.6875 47.703125 
L 2.6875 54.6875 
L 9.28125 54.6875 
L 9.28125 70.21875 
z
" id="DejaVuSans-116"/>
      <path d="M 54.890625 33.015625 
L 54.890625 0 
L 45.90625 0 
L 45.90625 32.71875 
Q 45.90625 40.484375 42.875 44.328125 
Q 39.84375 48.1875 33.796875 48.1875 
Q 26.515625 48.1875 22.3125 43.546875 
Q 18.109375 38.921875 18.109375 30.90625 
L 18.109375 0 
L 9.078125 0 
L 9.078125 54.6875 
L 18.109375 54.6875 
L 18.109375 46.1875 
Q 21.34375 51.125 25.703125 53.5625 
Q 30.078125 56 35.796875 56 
Q 45.21875 56 50.046875 50.171875 
Q 54.890625 44.34375 54.890625 33.015625 
z
" id="DejaVuSans-110"/>
      <path d="M 48.78125 52.59375 
L 48.78125 44.1875 
Q 44.96875 46.296875 41.140625 47.34375 
Q 37.3125 48.390625 33.40625 48.390625 
Q 24.65625 48.390625 19.8125 42.84375 
Q 14.984375 37.3125 14.984375 27.296875 
Q 14.984375 17.28125 19.8125 11.734375 
Q 24.65625 6.203125 33.40625 6.203125 
Q 37.3125 6.203125 41.140625 7.25 
Q 44.96875 8.296875 48.78125 10.40625 
L 48.78125 2.09375 
Q 45.015625 0.34375 40.984375 -0.53125 
Q 36.96875 -1.421875 32.421875 -1.421875 
Q 20.0625 -1.421875 12.78125 6.34375 
Q 5.515625 14.109375 5.515625 27.296875 
Q 5.515625 40.671875 12.859375 48.328125 
Q 20.21875 56 33.015625 56 
Q 37.15625 56 41.109375 55.140625 
Q 45.0625 54.296875 48.78125 52.59375 
z
" id="DejaVuSans-99"/>
      <path d="M 56.203125 29.59375 
L 56.203125 25.203125 
L 14.890625 25.203125 
Q 15.484375 15.921875 20.484375 11.0625 
Q 25.484375 6.203125 34.421875 6.203125 
Q 39.59375 6.203125 44.453125 7.46875 
Q 49.3125 8.734375 54.109375 11.28125 
L 54.109375 2.78125 
Q 49.265625 0.734375 44.1875 -0.34375 
Q 39.109375 -1.421875 33.890625 -1.421875 
Q 20.796875 -1.421875 13.15625 6.1875 
Q 5.515625 13.8125 5.515625 26.8125 
Q 5.515625 40.234375 12.765625 48.109375 
Q 20.015625 56 32.328125 56 
Q 43.359375 56 49.78125 48.890625 
Q 56.203125 41.796875 56.203125 29.59375 
z
M 47.21875 32.234375 
Q 47.125 39.59375 43.09375 43.984375 
Q 39.0625 48.390625 32.421875 48.390625 
Q 24.90625 48.390625 20.390625 44.140625 
Q 15.875 39.890625 15.1875 32.171875 
z
" id="DejaVuSans-101"/>
      <path d="M 37.109375 75.984375 
L 37.109375 68.5 
L 28.515625 68.5 
Q 23.6875 68.5 21.796875 66.546875 
Q 19.921875 64.59375 19.921875 59.515625 
L 19.921875 54.6875 
L 34.71875 54.6875 
L 34.71875 47.703125 
L 19.921875 47.703125 
L 19.921875 0 
L 10.890625 0 
L 10.890625 47.703125 
L 2.296875 47.703125 
L 2.296875 54.6875 
L 10.890625 54.6875 
L 10.890625 58.5 
Q 10.890625 67.625 15.140625 71.796875 
Q 19.390625 75.984375 28.609375 75.984375 
z
" id="DejaVuSans-102"/>
      <path d="M 41.109375 46.296875 
Q 39.59375 47.171875 37.8125 47.578125 
Q 36.03125 48 33.890625 48 
Q 26.265625 48 22.1875 43.046875 
Q 18.109375 38.09375 18.109375 28.8125 
L 18.109375 0 
L 9.078125 0 
L 9.078125 54.6875 
L 18.109375 54.6875 
L 18.109375 46.1875 
Q 20.953125 51.171875 25.484375 53.578125 
Q 30.03125 56 36.53125 56 
Q 37.453125 56 38.578125 55.875 
Q 39.703125 55.765625 41.0625 55.515625 
z
" id="DejaVuSans-114"/>
      <path d="M 30.609375 48.390625 
Q 23.390625 48.390625 19.1875 42.75 
Q 14.984375 37.109375 14.984375 27.296875 
Q 14.984375 17.484375 19.15625 11.84375 
Q 23.34375 6.203125 30.609375 6.203125 
Q 37.796875 6.203125 41.984375 11.859375 
Q 46.1875 17.53125 46.1875 27.296875 
Q 46.1875 37.015625 41.984375 42.703125 
Q 37.796875 48.390625 30.609375 48.390625 
z
M 30.609375 56 
Q 42.328125 56 49.015625 48.375 
Q 55.71875 40.765625 55.71875 27.296875 
Q 55.71875 13.875 49.015625 6.21875 
Q 42.328125 -1.421875 30.609375 -1.421875 
Q 18.84375 -1.421875 12.171875 6.21875 
Q 5.515625 13.875 5.515625 27.296875 
Q 5.515625 40.765625 12.171875 48.375 
Q 18.84375 56 30.609375 56 
z
" id="DejaVuSans-111"/>
      <path d="M 52 44.1875 
Q 55.375 50.25 60.0625 53.125 
Q 64.75 56 71.09375 56 
Q 79.640625 56 84.28125 50.015625 
Q 88.921875 44.046875 88.921875 33.015625 
L 88.921875 0 
L 79.890625 0 
L 79.890625 32.71875 
Q 79.890625 40.578125 77.09375 44.375 
Q 74.3125 48.1875 68.609375 48.1875 
Q 61.625 48.1875 57.5625 43.546875 
Q 53.515625 38.921875 53.515625 30.90625 
L 53.515625 0 
L 44.484375 0 
L 44.484375 32.71875 
Q 44.484375 40.625 41.703125 44.40625 
Q 38.921875 48.1875 33.109375 48.1875 
Q 26.21875 48.1875 22.15625 43.53125 
Q 18.109375 38.875 18.109375 30.90625 
L 18.109375 0 
L 9.078125 0 
L 9.078125 54.6875 
L 18.109375 54.6875 
L 18.109375 46.1875 
Q 21.1875 51.21875 25.484375 53.609375 
Q 29.78125 56 35.6875 56 
Q 41.65625 56 45.828125 52.96875 
Q 50 49.953125 52 44.1875 
z
" id="DejaVuSans-109"/>
      <path d="M 18.109375 8.203125 
L 18.109375 -20.796875 
L 9.078125 -20.796875 
L 9.078125 54.6875 
L 18.109375 54.6875 
L 18.109375 46.390625 
Q 20.953125 51.265625 25.265625 53.625 
Q 29.59375 56 35.59375 56 
Q 45.5625 56 51.78125 48.09375 
Q 58.015625 40.1875 58.015625 27.296875 
Q 58.015625 14.40625 51.78125 6.484375 
Q 45.5625 -1.421875 35.59375 -1.421875 
Q 29.59375 -1.421875 25.265625 0.953125 
Q 20.953125 3.328125 18.109375 8.203125 
z
M 48.6875 27.296875 
Q 48.6875 37.203125 44.609375 42.84375 
Q 40.53125 48.484375 33.40625 48.484375 
Q 26.265625 48.484375 22.1875 42.84375 
Q 18.109375 37.203125 18.109375 27.296875 
Q 18.109375 17.390625 22.1875 11.75 
Q 26.265625 6.109375 33.40625 6.109375 
Q 40.53125 6.109375 44.609375 11.75 
Q 48.6875 17.390625 48.6875 27.296875 
z
" id="DejaVuSans-112"/>
      <path d="M 31 75.875 
Q 24.46875 64.65625 21.28125 53.65625 
Q 18.109375 42.671875 18.109375 31.390625 
Q 18.109375 20.125 21.3125 9.0625 
Q 24.515625 -2 31 -13.1875 
L 23.1875 -13.1875 
Q 15.875 -1.703125 12.234375 9.375 
Q 8.59375 20.453125 8.59375 31.390625 
Q 8.59375 42.28125 12.203125 53.3125 
Q 15.828125 64.359375 23.1875 75.875 
z
" id="DejaVuSans-40"/>
      <path d="M -1.3125 -20.796875 
L 13.375 54.6875 
L 22.40625 54.6875 
L 15.765625 20.65625 
Q 15.578125 19.625 15.421875 18.359375 
Q 15.28125 17.09375 15.28125 15.828125 
Q 15.28125 11.28125 18.140625 8.828125 
Q 21 6.390625 26.3125 6.390625 
Q 33.546875 6.390625 37.984375 10.484375 
Q 42.4375 14.59375 44 22.796875 
L 50.203125 54.6875 
L 59.1875 54.6875 
L 51.03125 12.640625 
Q 50.828125 11.71875 50.75 11.03125 
Q 50.6875 10.359375 50.6875 9.8125 
Q 50.6875 8.296875 51.296875 7.59375 
Q 51.90625 6.890625 53.21875 6.890625 
Q 53.71875 6.890625 54.5625 7.125 
Q 55.421875 7.375 56.984375 8.015625 
L 55.609375 0.78125 
Q 53.46875 -0.296875 51.515625 -0.859375 
Q 49.5625 -1.421875 47.703125 -1.421875 
Q 44.484375 -1.421875 42.65625 0.625 
Q 40.828125 2.6875 40.828125 6.296875 
Q 38.09375 2.390625 34.296875 0.484375 
Q 30.515625 -1.421875 25.390625 -1.421875 
Q 20.84375 -1.421875 17.453125 0.671875 
Q 14.0625 2.78125 12.984375 6.203125 
L 7.71875 -20.796875 
z
" id="DejaVuSans-Oblique-956"/>
      <path d="M 89.796875 33.015625 
L 83.40625 0 
L 74.421875 0 
L 80.71875 32.71875 
Q 81.109375 34.8125 81.296875 36.328125 
Q 81.5 37.84375 81.5 38.921875 
Q 81.5 43.3125 79.046875 45.75 
Q 76.609375 48.1875 72.21875 48.1875 
Q 65.671875 48.1875 60.546875 43.28125 
Q 55.421875 38.375 53.90625 30.515625 
L 47.90625 0 
L 38.921875 0 
L 45.3125 32.71875 
Q 45.703125 34.515625 45.890625 36.046875 
Q 46.09375 37.59375 46.09375 38.8125 
Q 46.09375 43.265625 43.65625 45.71875 
Q 41.21875 48.1875 36.921875 48.1875 
Q 30.28125 48.1875 25.140625 43.28125 
Q 20.015625 38.375 18.5 30.515625 
L 12.5 0 
L 3.515625 0 
L 14.203125 54.6875 
L 23.1875 54.6875 
L 21.484375 46.1875 
Q 25.140625 50.984375 30.046875 53.484375 
Q 34.96875 56 40.578125 56 
Q 46.53125 56 50.359375 52.875 
Q 54.203125 49.75 54.984375 44.1875 
Q 59.078125 49.953125 64.46875 52.96875 
Q 69.875 56 75.875 56 
Q 82.90625 56 86.734375 51.953125 
Q 90.578125 47.90625 90.578125 40.484375 
Q 90.578125 38.875 90.375 36.9375 
Q 90.1875 35.015625 89.796875 33.015625 
z
" id="DejaVuSans-Oblique-109"/>
      <path d="M 8.015625 75.875 
L 15.828125 75.875 
Q 23.140625 64.359375 26.78125 53.3125 
Q 30.421875 42.28125 30.421875 31.390625 
Q 30.421875 20.453125 26.78125 9.375 
Q 23.140625 -1.703125 15.828125 -13.1875 
L 8.015625 -13.1875 
Q 14.5 -2 17.703125 9.0625 
Q 20.90625 20.125 20.90625 31.390625 
Q 20.90625 42.671875 17.703125 53.65625 
Q 14.5 64.65625 8.015625 75.875 
z
" id="DejaVuSans-41"/>
     </defs>
     <g transform="translate(227.32 416.645)scale(0.16 -0.16)">
      <use transform="translate(0 0.015625)" xlink:href="#DejaVuSans-65"/>
      <use transform="translate(68.408203 0.015625)" xlink:href="#DejaVuSans-120"/>
      <use transform="translate(127.587891 0.015625)" xlink:href="#DejaVuSans-105"/>
      <use transform="translate(155.371094 0.015625)" xlink:href="#DejaVuSans-97"/>
      <use transform="translate(216.650391 0.015625)" xlink:href="#DejaVuSans-108"/>
      <use transform="translate(244.433594 0.015625)" xlink:href="#DejaVuSans-32"/>
      <use transform="translate(276.220703 0.015625)" xlink:href="#DejaVuSans-100"/>
      <use transform="translate(339.697266 0.015625)" xlink:href="#DejaVuSans-105"/>
      <use transform="translate(367.480469 0.015625)" xlink:href="#DejaVuSans-115"/>
      <use transform="translate(419.580078 0.015625)" xlink:href="#DejaVuSans-116"/>
      <use transform="translate(458.789062 0.015625)" xlink:href="#DejaVuSans-97"/>
      <use transform="translate(520.068359 0.015625)" xlink:href="#DejaVuSans-110"/>
      <use transform="translate(583.447266 0.015625)" xlink:href="#DejaVuSans-99"/>
      <use transform="translate(638.427734 0.015625)" xlink:href="#DejaVuSans-101"/>
      <use transform="translate(699.951172 0.015625)" xlink:href="#DejaVuSans-32"/>
      <use transform="translate(731.738281 0.015625)" xlink:href="#DejaVuSans-102"/>
      <use transform="translate(766.943359 0.015625)" xlink:href="#DejaVuSans-114"/>
      <use transform="translate(808.056641 0.015625)" xlink:href="#DejaVuSans-111"/>
      <use transform="translate(869.238281 0.015625)" xlink:href="#DejaVuSans-109"/>
      <use transform="translate(966.650391 0.015625)" xlink:href="#DejaVuSans-32"/>
      <use transform="translate(998.4375 0.015625)" xlink:href="#DejaVuSans-110"/>
      <use transform="translate(1061.816406 0.015625)" xlink:href="#DejaVuSans-101"/>
      <use transform="translate(1123.339844 0.015625)" xlink:href="#DejaVuSans-101"/>
      <use transform="translate(1184.863281 0.015625)" xlink:href="#DejaVuSans-100"/>
      <use transform="translate(1248.339844 0.015625)" xlink:href="#DejaVuSans-108"/>
      <use transform="translate(1276.123047 0.015625)" xlink:href="#DejaVuSans-101"/>
      <use transform="translate(1337.646484 0.015625)" xlink:href="#DejaVuSans-32"/>
      <use transform="translate(1369.433594 0.015625)" xlink:href="#DejaVuSans-116"/>
      <use transform="translate(1408.642578 0.015625)" xlink:href="#DejaVuSans-105"/>
      <use transform="translate(1436.425781 0.015625)" xlink:href="#DejaVuSans-112"/>
      <use transform="translate(1499.902344 0.015625)" xlink:href="#DejaVuSans-32"/>
      <use transform="translate(1531.689453 0.015625)" xlink:href="#DejaVuSans-40"/>
      <use transform="translate(1570.703125 0.015625)" xlink:href="#DejaVuSans-Oblique-956"/>
      <use transform="translate(1634.326172 0.015625)" xlink:href="#DejaVuSans-Oblique-109"/>
      <use transform="translate(1731.738281 0.015625)" xlink:href="#DejaVuSans-41"/>
     </g>
    </g>
   </g>
   <g id="matplotlib.axis_2">
    <g id="ytick_1">
     <g id="line2d_9">
      <defs>
       <path d="M 0 0 
L -3.5 0 
" id="m89a832ec05" style="stroke:#000000;stroke-width:0.8;"/>
      </defs>
      <g>
       <use style="stroke:#000000;stroke-width:0.8;" x="90" xlink:href="#m89a832ec05" y="357.376409"/>
      </g>
     </g>
     <g id="text_10">
      <!-- 50 -->
      <defs>
       <path d="M 10.796875 72.90625 
L 49.515625 72.90625 
L 49.515625 64.59375 
L 19.828125 64.59375 
L 19.828125 46.734375 
Q 21.96875 47.46875 24.109375 47.828125 
Q 26.265625 48.1875 28.421875 48.1875 
Q 40.625 48.1875 47.75 41.5 
Q 54.890625 34.8125 54.890625 23.390625 
Q 54.890625 11.625 47.5625 5.09375 
Q 40.234375 -1.421875 26.90625 -1.421875 
Q 22.3125 -1.421875 17.546875 -0.640625 
Q 12.796875 0.140625 7.71875 1.703125 
L 7.71875 11.625 
Q 12.109375 9.234375 16.796875 8.0625 
Q 21.484375 6.890625 26.703125 6.890625 
Q 35.15625 6.890625 40.078125 11.328125 
Q 45.015625 15.765625 45.015625 23.390625 
Q 45.015625 31 40.078125 35.4375 
Q 35.15625 39.890625 26.703125 39.890625 
Q 22.75 39.890625 18.8125 39.015625 
Q 14.890625 38.140625 10.796875 36.28125 
z
" id="DejaVuSans-53"/>
      </defs>
      <g transform="translate(62.64 363.455159)scale(0.16 -0.16)">
       <use xlink:href="#DejaVuSans-53"/>
       <use x="63.623047" xlink:href="#DejaVuSans-48"/>
      </g>
     </g>
    </g>
    <g id="ytick_2">
     <g id="line2d_10">
      <g>
       <use style="stroke:#000000;stroke-width:0.8;" x="90" xlink:href="#m89a832ec05" y="304.473702"/>
      </g>
     </g>
     <g id="text_11">
      <!-- 100 -->
      <g transform="translate(52.46 310.552452)scale(0.16 -0.16)">
       <use xlink:href="#DejaVuSans-49"/>
       <use x="63.623047" xlink:href="#DejaVuSans-48"/>
       <use x="127.246094" xlink:href="#DejaVuSans-48"/>
      </g>
     </g>
    </g>
    <g id="ytick_3">
     <g id="line2d_11">
      <g>
       <use style="stroke:#000000;stroke-width:0.8;" x="90" xlink:href="#m89a832ec05" y="251.570995"/>
      </g>
     </g>
     <g id="text_12">
      <!-- 150 -->
      <g transform="translate(52.46 257.649745)scale(0.16 -0.16)">
       <use xlink:href="#DejaVuSans-49"/>
       <use x="63.623047" xlink:href="#DejaVuSans-53"/>
       <use x="127.246094" xlink:href="#DejaVuSans-48"/>
      </g>
     </g>
    </g>
    <g id="ytick_4">
     <g id="line2d_12">
      <g>
       <use style="stroke:#000000;stroke-width:0.8;" x="90" xlink:href="#m89a832ec05" y="198.668288"/>
      </g>
     </g>
     <g id="text_13">
      <!-- 200 -->
      <g transform="translate(52.46 204.747038)scale(0.16 -0.16)">
       <use xlink:href="#DejaVuSans-50"/>
       <use x="63.623047" xlink:href="#DejaVuSans-48"/>
       <use x="127.246094" xlink:href="#DejaVuSans-48"/>
      </g>
     </g>
    </g>
    <g id="ytick_5">
     <g id="line2d_13">
      <g>
       <use style="stroke:#000000;stroke-width:0.8;" x="90" xlink:href="#m89a832ec05" y="145.765582"/>
      </g>
     </g>
     <g id="text_14">
      <!-- 250 -->
      <g transform="translate(52.46 151.844332)scale(0.16 -0.16)">
       <use xlink:href="#DejaVuSans-50"/>
       <use x="63.623047" xlink:href="#DejaVuSans-53"/>
       <use x="127.246094" xlink:href="#DejaVuSans-48"/>
      </g>
     </g>
    </g>
    <g id="ytick_6">
     <g id="line2d_14">
      <g>
       <use style="stroke:#000000;stroke-width:0.8;" x="90" xlink:href="#m89a832ec05" y="92.862875"/>
      </g>
     </g>
     <g id="text_15">
      <!-- 300 -->
      <defs>
       <path d="M 40.578125 39.3125 
Q 47.65625 37.796875 51.625 33 
Q 55.609375 28.21875 55.609375 21.1875 
Q 55.609375 10.40625 48.1875 4.484375 
Q 40.765625 -1.421875 27.09375 -1.421875 
Q 22.515625 -1.421875 17.65625 -0.515625 
Q 12.796875 0.390625 7.625 2.203125 
L 7.625 11.71875 
Q 11.71875 9.328125 16.59375 8.109375 
Q 21.484375 6.890625 26.8125 6.890625 
Q 36.078125 6.890625 40.9375 10.546875 
Q 45.796875 14.203125 45.796875 21.1875 
Q 45.796875 27.640625 41.28125 31.265625 
Q 36.765625 34.90625 28.71875 34.90625 
L 20.21875 34.90625 
L 20.21875 43.015625 
L 29.109375 43.015625 
Q 36.375 43.015625 40.234375 45.921875 
Q 44.09375 48.828125 44.09375 54.296875 
Q 44.09375 59.90625 40.109375 62.90625 
Q 36.140625 65.921875 28.71875 65.921875 
Q 24.65625 65.921875 20.015625 65.03125 
Q 15.375 64.15625 9.8125 62.3125 
L 9.8125 71.09375 
Q 15.4375 72.65625 20.34375 73.4375 
Q 25.25 74.21875 29.59375 74.21875 
Q 40.828125 74.21875 47.359375 69.109375 
Q 53.90625 64.015625 53.90625 55.328125 
Q 53.90625 49.265625 50.4375 45.09375 
Q 46.96875 40.921875 40.578125 39.3125 
z
" id="DejaVuSans-51"/>
      </defs>
      <g transform="translate(52.46 98.941625)scale(0.16 -0.16)">
       <use xlink:href="#DejaVuSans-51"/>
       <use x="63.623047" xlink:href="#DejaVuSans-48"/>
       <use x="127.246094" xlink:href="#DejaVuSans-48"/>
      </g>
     </g>
    </g>
    <g id="text_16">
     <!-- R (z) $\mu m$ -->
     <defs>
      <path d="M 44.390625 34.1875 
Q 47.5625 33.109375 50.5625 29.59375 
Q 53.5625 26.078125 56.59375 19.921875 
L 66.609375 0 
L 56 0 
L 46.6875 18.703125 
Q 43.0625 26.03125 39.671875 28.421875 
Q 36.28125 30.8125 30.421875 30.8125 
L 19.671875 30.8125 
L 19.671875 0 
L 9.8125 0 
L 9.8125 72.90625 
L 32.078125 72.90625 
Q 44.578125 72.90625 50.734375 67.671875 
Q 56.890625 62.453125 56.890625 51.90625 
Q 56.890625 45.015625 53.6875 40.46875 
Q 50.484375 35.9375 44.390625 34.1875 
z
M 19.671875 64.796875 
L 19.671875 38.921875 
L 32.078125 38.921875 
Q 39.203125 38.921875 42.84375 42.21875 
Q 46.484375 45.515625 46.484375 51.90625 
Q 46.484375 58.296875 42.84375 61.546875 
Q 39.203125 64.796875 32.078125 64.796875 
z
" id="DejaVuSans-82"/>
      <path d="M 5.515625 54.6875 
L 48.1875 54.6875 
L 48.1875 46.484375 
L 14.40625 7.171875 
L 48.1875 7.171875 
L 48.1875 0 
L 4.296875 0 
L 4.296875 8.203125 
L 38.09375 47.515625 
L 5.515625 47.515625 
z
" id="DejaVuSans-122"/>
     </defs>
     <g transform="translate(45.1 248.92)rotate(-90)scale(0.16 -0.16)">
      <use transform="translate(0 0.125)" xlink:href="#DejaVuSans-82"/>
      <use transform="translate(69.482422 0.125)" xlink:href="#DejaVuSans-32"/>
      <use transform="translate(101.269531 0.125)" xlink:href="#DejaVuSans-40"/>
      <use transform="translate(140.283203 0.125)" xlink:href="#DejaVuSans-122"/>
      <use transform="translate(192.773438 0.125)" xlink:href="#DejaVuSans-41"/>
      <use transform="translate(231.787109 0.125)" xlink:href="#DejaVuSans-32"/>
      <use transform="translate(263.574219 0.125)" xlink:href="#DejaVuSans-Oblique-956"/>
      <use transform="translate(327.197266 0.125)" xlink:href="#DejaVuSans-Oblique-109"/>
     </g>
    </g>
   </g>
   <g id="line2d_15">
    <path clip-path="url(#pe45e60a204)" d="M 126 354.85824 
L 162 331.305955 
L 198 310.515191 
L 234 291.121059 
L 270 271.726927 
L 306 257.866417 
L 342 244.016489 
L 378 230.15598 
L 414 216.306051 
L 450 201.059491 
L 486 188.595613 
L 522 177.507206 
L 558 160.885175 
L 594 153.954921 
L 630 142.866513 
" style="fill:none;stroke:#1f77b4;stroke-dasharray:9.6,2.4,1.5,2.4;stroke-dashoffset:0;stroke-width:1.5;"/>
   </g>
   <g id="line2d_16">
    <path clip-path="url(#pe45e60a204)" d="M 126 363.174545 
L 162 332.692006 
L 198 304.981568 
L 234 278.657181 
L 270 262.02457 
L 306 239.858336 
L 342 230.15598 
L 378 214.92 
L 414 201.059491 
L 450 185.823511 
L 486 171.963002 
L 522 156.727023 
L 558 149.796768 
L 594 140.094412 
L 630 123.472381 
" style="fill:none;stroke:#ff7f0e;stroke-linecap:square;stroke-width:1.5;"/>
    <defs>
     <path d="M 0 3 
C 0.795609 3 1.55874 2.683901 2.12132 2.12132 
C 2.683901 1.55874 3 0.795609 3 0 
C 3 -0.795609 2.683901 -1.55874 2.12132 -2.12132 
C 1.55874 -2.683901 0.795609 -3 0 -3 
C -0.795609 -3 -1.55874 -2.683901 -2.12132 -2.12132 
C -2.683901 -1.55874 -3 -0.795609 -3 0 
C -3 0.795609 -2.683901 1.55874 -2.12132 2.12132 
C -1.55874 2.683901 -0.795609 3 0 3 
z
" id="m93079bea2a" style="stroke:#ff7f0e;"/>
    </defs>
    <g clip-path="url(#pe45e60a204)">
     <use style="fill:#ff7f0e;stroke:#ff7f0e;" x="126" xlink:href="#m93079bea2a" y="363.174545"/>
     <use style="fill:#ff7f0e;stroke:#ff7f0e;" x="162" xlink:href="#m93079bea2a" y="332.692006"/>
     <use style="fill:#ff7f0e;stroke:#ff7f0e;" x="198" xlink:href="#m93079bea2a" y="304.981568"/>
     <use style="fill:#ff7f0e;stroke:#ff7f0e;" x="234" xlink:href="#m93079bea2a" y="278.657181"/>
     <use style="fill:#ff7f0e;stroke:#ff7f0e;" x="270" xlink:href="#m93079bea2a" y="262.02457"/>
     <use style="fill:#ff7f0e;stroke:#ff7f0e;" x="306" xlink:href="#m93079bea2a" y="239.858336"/>
     <use style="fill:#ff7f0e;stroke:#ff7f0e;" x="342" xlink:href="#m93079bea2a" y="230.15598"/>
     <use style="fill:#ff7f0e;stroke:#ff7f0e;" x="378" xlink:href="#m93079bea2a" y="214.92"/>
     <use style="fill:#ff7f0e;stroke:#ff7f0e;" x="414" xlink:href="#m93079bea2a" y="201.059491"/>
     <use style="fill:#ff7f0e;stroke:#ff7f0e;" x="450" xlink:href="#m93079bea2a" y="185.823511"/>
     <use style="fill:#ff7f0e;stroke:#ff7f0e;" x="486" xlink:href="#m93079bea2a" y="171.963002"/>
     <use style="fill:#ff7f0e;stroke:#ff7f0e;" x="522" xlink:href="#m93079bea2a" y="156.727023"/>
     <use style="fill:#ff7f0e;stroke:#ff7f0e;" x="558" xlink:href="#m93079bea2a" y="149.796768"/>
     <use style="fill:#ff7f0e;stroke:#ff7f0e;" x="594" xlink:href="#m93079bea2a" y="140.094412"/>
     <use style="fill:#ff7f0e;stroke:#ff7f0e;" x="630" xlink:href="#m93079bea2a" y="123.472381"/>
    </g>
   </g>
   <g id="line2d_17">
    <path clip-path="url(#pe45e60a204)" d="M 126 338.225629 
L 162 313.287293 
L 198 288.348957 
L 234 267.568774 
L 270 253.729426 
L 306 231.54203 
L 342 223.225725 
L 378 205.217644 
L 414 188.595613 
L 450 173.349053 
L 486 163.646697 
L 522 155.340972 
L 558 148.410717 
L 594 141.480462 
L 630 122.08633 
" style="fill:none;stroke:#2ca02c;stroke-linecap:square;stroke-width:1.5;"/>
    <defs>
     <path d="M -0 3 
L 3 -3 
L -3 -3 
z
" id="m320e654dee" style="stroke:#2ca02c;stroke-linejoin:miter;"/>
    </defs>
    <g clip-path="url(#pe45e60a204)">
     <use style="fill:#2ca02c;stroke:#2ca02c;stroke-linejoin:miter;" x="126" xlink:href="#m320e654dee" y="338.225629"/>
     <use style="fill:#2ca02c;stroke:#2ca02c;stroke-linejoin:miter;" x="162" xlink:href="#m320e654dee" y="313.287293"/>
     <use style="fill:#2ca02c;stroke:#2ca02c;stroke-linejoin:miter;" x="198" xlink:href="#m320e654dee" y="288.348957"/>
     <use style="fill:#2ca02c;stroke:#2ca02c;stroke-linejoin:miter;" x="234" xlink:href="#m320e654dee" y="267.568774"/>
     <use style="fill:#2ca02c;stroke:#2ca02c;stroke-linejoin:miter;" x="270" xlink:href="#m320e654dee" y="253.729426"/>
     <use style="fill:#2ca02c;stroke:#2ca02c;stroke-linejoin:miter;" x="306" xlink:href="#m320e654dee" y="231.54203"/>
     <use style="fill:#2ca02c;stroke:#2ca02c;stroke-linejoin:miter;" x="342" xlink:href="#m320e654dee" y="223.225725"/>
     <use style="fill:#2ca02c;stroke:#2ca02c;stroke-linejoin:miter;" x="378" xlink:href="#m320e654dee" y="205.217644"/>
     <use style="fill:#2ca02c;stroke:#2ca02c;stroke-linejoin:miter;" x="414" xlink:href="#m320e654dee" y="188.595613"/>
     <use style="fill:#2ca02c;stroke:#2ca02c;stroke-linejoin:miter;" x="450" xlink:href="#m320e654dee" y="173.349053"/>
     <use style="fill:#2ca02c;stroke:#2ca02c;stroke-linejoin:miter;" x="486" xlink:href="#m320e654dee" y="163.646697"/>
     <use style="fill:#2ca02c;stroke:#2ca02c;stroke-linejoin:miter;" x="522" xlink:href="#m320e654dee" y="155.340972"/>
     <use style="fill:#2ca02c;stroke:#2ca02c;stroke-linejoin:miter;" x="558" xlink:href="#m320e654dee" y="148.410717"/>
     <use style="fill:#2ca02c;stroke:#2ca02c;stroke-linejoin:miter;" x="594" xlink:href="#m320e654dee" y="141.480462"/>
     <use style="fill:#2ca02c;stroke:#2ca02c;stroke-linejoin:miter;" x="630" xlink:href="#m320e654dee" y="122.08633"/>
    </g>
   </g>
   <g id="line2d_18">
    <path clip-path="url(#pe45e60a204)" d="M 126 325.761751 
L 162 289.735008 
L 198 260.638519 
L 234 234.314132 
L 270 209.375796 
L 306 196.901338 
L 342 180.279308 
L 378 156.727023 
L 414 147.024666 
L 450 129.016585 
L 486 117.928177 
L 522 108.225821 
L 558 91.603791 
L 594 80.515383 
L 630 74.98176 
" style="fill:none;stroke:#d62728;stroke-linecap:square;stroke-width:1.5;"/>
    <defs>
     <path d="M 0 -3 
L -3 3 
L 3 3 
z
" id="mc71cbad814" style="stroke:#d62728;stroke-linejoin:miter;"/>
    </defs>
    <g clip-path="url(#pe45e60a204)">
     <use style="fill:#d62728;stroke:#d62728;stroke-linejoin:miter;" x="126" xlink:href="#mc71cbad814" y="325.761751"/>
     <use style="fill:#d62728;stroke:#d62728;stroke-linejoin:miter;" x="162" xlink:href="#mc71cbad814" y="289.735008"/>
     <use style="fill:#d62728;stroke:#d62728;stroke-linejoin:miter;" x="198" xlink:href="#mc71cbad814" y="260.638519"/>
     <use style="fill:#d62728;stroke:#d62728;stroke-linejoin:miter;" x="234" xlink:href="#mc71cbad814" y="234.314132"/>
     <use style="fill:#d62728;stroke:#d62728;stroke-linejoin:miter;" x="270" xlink:href="#mc71cbad814" y="209.375796"/>
     <use style="fill:#d62728;stroke:#d62728;stroke-linejoin:miter;" x="306" xlink:href="#mc71cbad814" y="196.901338"/>
     <use style="fill:#d62728;stroke:#d62728;stroke-linejoin:miter;" x="342" xlink:href="#mc71cbad814" y="180.279308"/>
     <use style="fill:#d62728;stroke:#d62728;stroke-linejoin:miter;" x="378" xlink:href="#mc71cbad814" y="156.727023"/>
     <use style="fill:#d62728;stroke:#d62728;stroke-linejoin:miter;" x="414" xlink:href="#mc71cbad814" y="147.024666"/>
     <use style="fill:#d62728;stroke:#d62728;stroke-linejoin:miter;" x="450" xlink:href="#mc71cbad814" y="129.016585"/>
     <use style="fill:#d62728;stroke:#d62728;stroke-linejoin:miter;" x="486" xlink:href="#mc71cbad814" y="117.928177"/>
     <use style="fill:#d62728;stroke:#d62728;stroke-linejoin:miter;" x="522" xlink:href="#mc71cbad814" y="108.225821"/>
     <use style="fill:#d62728;stroke:#d62728;stroke-linejoin:miter;" x="558" xlink:href="#mc71cbad814" y="91.603791"/>
     <use style="fill:#d62728;stroke:#d62728;stroke-linejoin:miter;" x="594" xlink:href="#mc71cbad814" y="80.515383"/>
     <use style="fill:#d62728;stroke:#d62728;stroke-linejoin:miter;" x="630" xlink:href="#mc71cbad814" y="74.98176"/>
    </g>
   </g>
   <g id="line2d_19">
    <path clip-path="url(#pe45e60a204)" d="M 126 345.155884 
L 162 317.445446 
L 198 298.051313 
L 234 284.190804 
L 270 262.02457 
L 306 245.40254 
L 342 234.314132 
L 378 216.306051 
L 414 198.287389 
L 450 188.595613 
L 486 166.418798 
L 522 162.271226 
L 558 152.56887 
L 594 140.094412 
L 630 127.630534 
" style="fill:none;stroke:#9467bd;stroke-linecap:square;stroke-width:1.5;"/>
    <defs>
     <path d="M -3 3 
L 3 -3 
M -3 -3 
L 3 3 
" id="m0ed3892a51" style="stroke:#9467bd;"/>
    </defs>
    <g clip-path="url(#pe45e60a204)">
     <use style="fill:#9467bd;stroke:#9467bd;" x="126" xlink:href="#m0ed3892a51" y="345.155884"/>
     <use style="fill:#9467bd;stroke:#9467bd;" x="162" xlink:href="#m0ed3892a51" y="317.445446"/>
     <use style="fill:#9467bd;stroke:#9467bd;" x="198" xlink:href="#m0ed3892a51" y="298.051313"/>
     <use style="fill:#9467bd;stroke:#9467bd;" x="234" xlink:href="#m0ed3892a51" y="284.190804"/>
     <use style="fill:#9467bd;stroke:#9467bd;" x="270" xlink:href="#m0ed3892a51" y="262.02457"/>
     <use style="fill:#9467bd;stroke:#9467bd;" x="306" xlink:href="#m0ed3892a51" y="245.40254"/>
     <use style="fill:#9467bd;stroke:#9467bd;" x="342" xlink:href="#m0ed3892a51" y="234.314132"/>
     <use style="fill:#9467bd;stroke:#9467bd;" x="378" xlink:href="#m0ed3892a51" y="216.306051"/>
     <use style="fill:#9467bd;stroke:#9467bd;" x="414" xlink:href="#m0ed3892a51" y="198.287389"/>
     <use style="fill:#9467bd;stroke:#9467bd;" x="450" xlink:href="#m0ed3892a51" y="188.595613"/>
     <use style="fill:#9467bd;stroke:#9467bd;" x="486" xlink:href="#m0ed3892a51" y="166.418798"/>
     <use style="fill:#9467bd;stroke:#9467bd;" x="522" xlink:href="#m0ed3892a51" y="162.271226"/>
     <use style="fill:#9467bd;stroke:#9467bd;" x="558" xlink:href="#m0ed3892a51" y="152.56887"/>
     <use style="fill:#9467bd;stroke:#9467bd;" x="594" xlink:href="#m0ed3892a51" y="140.094412"/>
     <use style="fill:#9467bd;stroke:#9467bd;" x="630" xlink:href="#m0ed3892a51" y="127.630534"/>
    </g>
   </g>
   <g id="line2d_20">
    <path clip-path="url(#pe45e60a204)" d="M 126 357.630342 
L 162 328.533853 
L 198 300.823415 
L 234 271.726927 
L 270 250.936163 
L 306 227.383878 
L 342 213.533949 
L 378 189.981664 
L 414 171.963002 
L 450 155.340972 
L 486 147.024666 
L 522 134.550208 
L 558 115.156076 
L 594 108.225821 
L 630 94.375892 
" style="fill:none;stroke:#8c564b;stroke-linecap:square;stroke-width:1.5;"/>
    <defs>
     <path d="M 0 -3 
L -0.673542 -0.927051 
L -2.85317 -0.927051 
L -1.089814 0.354102 
L -1.763356 2.427051 
L -0 1.145898 
L 1.763356 2.427051 
L 1.089814 0.354102 
L 2.85317 -0.927051 
L 0.673542 -0.927051 
z
" id="m02bb94777e" style="stroke:#8c564b;stroke-linejoin:bevel;"/>
    </defs>
    <g clip-path="url(#pe45e60a204)">
     <use style="fill:#8c564b;stroke:#8c564b;stroke-linejoin:bevel;" x="126" xlink:href="#m02bb94777e" y="357.630342"/>
     <use style="fill:#8c564b;stroke:#8c564b;stroke-linejoin:bevel;" x="162" xlink:href="#m02bb94777e" y="328.533853"/>
     <use style="fill:#8c564b;stroke:#8c564b;stroke-linejoin:bevel;" x="198" xlink:href="#m02bb94777e" y="300.823415"/>
     <use style="fill:#8c564b;stroke:#8c564b;stroke-linejoin:bevel;" x="234" xlink:href="#m02bb94777e" y="271.726927"/>
     <use style="fill:#8c564b;stroke:#8c564b;stroke-linejoin:bevel;" x="270" xlink:href="#m02bb94777e" y="250.936163"/>
     <use style="fill:#8c564b;stroke:#8c564b;stroke-linejoin:bevel;" x="306" xlink:href="#m02bb94777e" y="227.383878"/>
     <use style="fill:#8c564b;stroke:#8c564b;stroke-linejoin:bevel;" x="342" xlink:href="#m02bb94777e" y="213.533949"/>
     <use style="fill:#8c564b;stroke:#8c564b;stroke-linejoin:bevel;" x="378" xlink:href="#m02bb94777e" y="189.981664"/>
     <use style="fill:#8c564b;stroke:#8c564b;stroke-linejoin:bevel;" x="414" xlink:href="#m02bb94777e" y="171.963002"/>
     <use style="fill:#8c564b;stroke:#8c564b;stroke-linejoin:bevel;" x="450" xlink:href="#m02bb94777e" y="155.340972"/>
     <use style="fill:#8c564b;stroke:#8c564b;stroke-linejoin:bevel;" x="486" xlink:href="#m02bb94777e" y="147.024666"/>
     <use style="fill:#8c564b;stroke:#8c564b;stroke-linejoin:bevel;" x="522" xlink:href="#m02bb94777e" y="134.550208"/>
     <use style="fill:#8c564b;stroke:#8c564b;stroke-linejoin:bevel;" x="558" xlink:href="#m02bb94777e" y="115.156076"/>
     <use style="fill:#8c564b;stroke:#8c564b;stroke-linejoin:bevel;" x="594" xlink:href="#m02bb94777e" y="108.225821"/>
     <use style="fill:#8c564b;stroke:#8c564b;stroke-linejoin:bevel;" x="630" xlink:href="#m02bb94777e" y="94.375892"/>
    </g>
   </g>
   <g id="line2d_21">
    <path clip-path="url(#pe45e60a204)" d="M 126 353.472189 
L 162 322.989649 
L 198 288.348957 
L 234 259.252468 
L 270 234.314132 
L 306 209.375796 
L 342 189.981664 
L 378 169.1909 
L 414 153.954921 
L 450 138.708361 
L 486 119.314228 
L 522 108.225821 
L 558 94.375892 
L 594 83.287485 
L 630 66.665455 
" style="fill:none;stroke:#e377c2;stroke-linecap:square;stroke-width:1.5;"/>
    <defs>
     <path d="M 3 0 
L -3 -3 
L -3 3 
z
" id="m919e2cb542" style="stroke:#e377c2;stroke-linejoin:miter;"/>
    </defs>
    <g clip-path="url(#pe45e60a204)">
     <use style="fill:#e377c2;stroke:#e377c2;stroke-linejoin:miter;" x="126" xlink:href="#m919e2cb542" y="353.472189"/>
     <use style="fill:#e377c2;stroke:#e377c2;stroke-linejoin:miter;" x="162" xlink:href="#m919e2cb542" y="322.989649"/>
     <use style="fill:#e377c2;stroke:#e377c2;stroke-linejoin:miter;" x="198" xlink:href="#m919e2cb542" y="288.348957"/>
     <use style="fill:#e377c2;stroke:#e377c2;stroke-linejoin:miter;" x="234" xlink:href="#m919e2cb542" y="259.252468"/>
     <use style="fill:#e377c2;stroke:#e377c2;stroke-linejoin:miter;" x="270" xlink:href="#m919e2cb542" y="234.314132"/>
     <use style="fill:#e377c2;stroke:#e377c2;stroke-linejoin:miter;" x="306" xlink:href="#m919e2cb542" y="209.375796"/>
     <use style="fill:#e377c2;stroke:#e377c2;stroke-linejoin:miter;" x="342" xlink:href="#m919e2cb542" y="189.981664"/>
     <use style="fill:#e377c2;stroke:#e377c2;stroke-linejoin:miter;" x="378" xlink:href="#m919e2cb542" y="169.1909"/>
     <use style="fill:#e377c2;stroke:#e377c2;stroke-linejoin:miter;" x="414" xlink:href="#m919e2cb542" y="153.954921"/>
     <use style="fill:#e377c2;stroke:#e377c2;stroke-linejoin:miter;" x="450" xlink:href="#m919e2cb542" y="138.708361"/>
     <use style="fill:#e377c2;stroke:#e377c2;stroke-linejoin:miter;" x="486" xlink:href="#m919e2cb542" y="119.314228"/>
     <use style="fill:#e377c2;stroke:#e377c2;stroke-linejoin:miter;" x="522" xlink:href="#m919e2cb542" y="108.225821"/>
     <use style="fill:#e377c2;stroke:#e377c2;stroke-linejoin:miter;" x="558" xlink:href="#m919e2cb542" y="94.375892"/>
     <use style="fill:#e377c2;stroke:#e377c2;stroke-linejoin:miter;" x="594" xlink:href="#m919e2cb542" y="83.287485"/>
     <use style="fill:#e377c2;stroke:#e377c2;stroke-linejoin:miter;" x="630" xlink:href="#m919e2cb542" y="66.665455"/>
    </g>
   </g>
   <g id="line2d_22">
    <path clip-path="url(#pe45e60a204)" d="M 126 342.383782 
L 162 317.445446 
L 198 293.893161 
L 234 271.726927 
L 270 257.866417 
L 306 244.016489 
L 342 231.54203 
L 378 216.306051 
L 414 210.761847 
L 450 194.129236 
L 486 180.279308 
L 522 173.349053 
L 558 166.418798 
L 594 158.113073 
L 630 151.182819 
" style="fill:none;stroke:#7f7f7f;stroke-linecap:square;stroke-width:1.5;"/>
    <defs>
     <path d="M -1.5 3 
L 0 1.5 
L 1.5 3 
L 3 1.5 
L 1.5 0 
L 3 -1.5 
L 1.5 -3 
L 0 -1.5 
L -1.5 -3 
L -3 -1.5 
L -1.5 0 
L -3 1.5 
z
" id="m02566c5f14" style="stroke:#7f7f7f;stroke-linejoin:miter;"/>
    </defs>
    <g clip-path="url(#pe45e60a204)">
     <use style="fill:#7f7f7f;stroke:#7f7f7f;stroke-linejoin:miter;" x="126" xlink:href="#m02566c5f14" y="342.383782"/>
     <use style="fill:#7f7f7f;stroke:#7f7f7f;stroke-linejoin:miter;" x="162" xlink:href="#m02566c5f14" y="317.445446"/>
     <use style="fill:#7f7f7f;stroke:#7f7f7f;stroke-linejoin:miter;" x="198" xlink:href="#m02566c5f14" y="293.893161"/>
     <use style="fill:#7f7f7f;stroke:#7f7f7f;stroke-linejoin:miter;" x="234" xlink:href="#m02566c5f14" y="271.726927"/>
     <use style="fill:#7f7f7f;stroke:#7f7f7f;stroke-linejoin:miter;" x="270" xlink:href="#m02566c5f14" y="257.866417"/>
     <use style="fill:#7f7f7f;stroke:#7f7f7f;stroke-linejoin:miter;" x="306" xlink:href="#m02566c5f14" y="244.016489"/>
     <use style="fill:#7f7f7f;stroke:#7f7f7f;stroke-linejoin:miter;" x="342" xlink:href="#m02566c5f14" y="231.54203"/>
     <use style="fill:#7f7f7f;stroke:#7f7f7f;stroke-linejoin:miter;" x="378" xlink:href="#m02566c5f14" y="216.306051"/>
     <use style="fill:#7f7f7f;stroke:#7f7f7f;stroke-linejoin:miter;" x="414" xlink:href="#m02566c5f14" y="210.761847"/>
     <use style="fill:#7f7f7f;stroke:#7f7f7f;stroke-linejoin:miter;" x="450" xlink:href="#m02566c5f14" y="194.129236"/>
     <use style="fill:#7f7f7f;stroke:#7f7f7f;stroke-linejoin:miter;" x="486" xlink:href="#m02566c5f14" y="180.279308"/>
     <use style="fill:#7f7f7f;stroke:#7f7f7f;stroke-linejoin:miter;" x="522" xlink:href="#m02566c5f14" y="173.349053"/>
     <use style="fill:#7f7f7f;stroke:#7f7f7f;stroke-linejoin:miter;" x="558" xlink:href="#m02566c5f14" y="166.418798"/>
     <use style="fill:#7f7f7f;stroke:#7f7f7f;stroke-linejoin:miter;" x="594" xlink:href="#m02566c5f14" y="158.113073"/>
     <use style="fill:#7f7f7f;stroke:#7f7f7f;stroke-linejoin:miter;" x="630" xlink:href="#m02566c5f14" y="151.182819"/>
    </g>
   </g>
   <g id="patch_3">
    <path d="M 90 378 
L 90 51.84 
" style="fill:none;stroke:#000000;stroke-linecap:square;stroke-linejoin:miter;stroke-width:0.8;"/>
   </g>
   <g id="patch_4">
    <path d="M 648 378 
L 648 51.84 
" style="fill:none;stroke:#000000;stroke-linecap:square;stroke-linejoin:miter;stroke-width:0.8;"/>
   </g>
   <g id="patch_5">
    <path d="M 90 378 
L 648 378 
" style="fill:none;stroke:#000000;stroke-linecap:square;stroke-linejoin:miter;stroke-width:0.8;"/>
   </g>
   <g id="patch_6">
    <path d="M 90 51.84 
L 648 51.84 
" style="fill:none;stroke:#000000;stroke-linecap:square;stroke-linejoin:miter;stroke-width:0.8;"/>
   </g>
   <g id="legend_1">
    <g id="patch_7">
     <path d="M 101.2 252.52 
L 216.8575 252.52 
Q 220.0575 252.52 220.0575 249.32 
L 220.0575 63.04 
Q 220.0575 59.84 216.8575 59.84 
L 101.2 59.84 
Q 98 59.84 98 63.04 
L 98 249.32 
Q 98 252.52 101.2 252.52 
z
" style="fill:#ffffff;opacity:0.8;stroke:#cccccc;stroke-linejoin:miter;"/>
    </g>
    <g id="line2d_23">
     <path d="M 104.4 72.7975 
L 136.4 72.7975 
" style="fill:none;stroke:#1f77b4;stroke-dasharray:9.6,2.4,1.5,2.4;stroke-dashoffset:0;stroke-width:1.5;"/>
    </g>
    <g id="line2d_24"/>
    <g id="text_17">
     <!-- needle1 -->
     <g transform="translate(149.2 78.3975)scale(0.16 -0.16)">
      <use xlink:href="#DejaVuSans-110"/>
      <use x="63.378906" xlink:href="#DejaVuSans-101"/>
      <use x="124.902344" xlink:href="#DejaVuSans-101"/>
      <use x="186.425781" xlink:href="#DejaVuSans-100"/>
      <use x="249.902344" xlink:href="#DejaVuSans-108"/>
      <use x="277.685547" xlink:href="#DejaVuSans-101"/>
      <use x="339.208984" xlink:href="#DejaVuSans-49"/>
     </g>
    </g>
    <g id="line2d_25">
     <path d="M 104.4 96.2825 
L 136.4 96.2825 
" style="fill:none;stroke:#ff7f0e;stroke-linecap:square;stroke-width:1.5;"/>
    </g>
    <g id="line2d_26">
     <g>
      <use style="fill:#ff7f0e;stroke:#ff7f0e;" x="120.4" xlink:href="#m93079bea2a" y="96.2825"/>
     </g>
    </g>
    <g id="text_18">
     <!-- needle2 -->
     <g transform="translate(149.2 101.8825)scale(0.16 -0.16)">
      <use xlink:href="#DejaVuSans-110"/>
      <use x="63.378906" xlink:href="#DejaVuSans-101"/>
      <use x="124.902344" xlink:href="#DejaVuSans-101"/>
      <use x="186.425781" xlink:href="#DejaVuSans-100"/>
      <use x="249.902344" xlink:href="#DejaVuSans-108"/>
      <use x="277.685547" xlink:href="#DejaVuSans-101"/>
      <use x="339.208984" xlink:href="#DejaVuSans-50"/>
     </g>
    </g>
    <g id="line2d_27">
     <path d="M 104.4 119.7675 
L 136.4 119.7675 
" style="fill:none;stroke:#2ca02c;stroke-linecap:square;stroke-width:1.5;"/>
    </g>
    <g id="line2d_28">
     <g>
      <use style="fill:#2ca02c;stroke:#2ca02c;stroke-linejoin:miter;" x="120.4" xlink:href="#m320e654dee" y="119.7675"/>
     </g>
    </g>
    <g id="text_19">
     <!-- needle3 -->
     <g transform="translate(149.2 125.3675)scale(0.16 -0.16)">
      <use xlink:href="#DejaVuSans-110"/>
      <use x="63.378906" xlink:href="#DejaVuSans-101"/>
      <use x="124.902344" xlink:href="#DejaVuSans-101"/>
      <use x="186.425781" xlink:href="#DejaVuSans-100"/>
      <use x="249.902344" xlink:href="#DejaVuSans-108"/>
      <use x="277.685547" xlink:href="#DejaVuSans-101"/>
      <use x="339.208984" xlink:href="#DejaVuSans-51"/>
     </g>
    </g>
    <g id="line2d_29">
     <path d="M 104.4 143.2525 
L 136.4 143.2525 
" style="fill:none;stroke:#d62728;stroke-linecap:square;stroke-width:1.5;"/>
    </g>
    <g id="line2d_30">
     <g>
      <use style="fill:#d62728;stroke:#d62728;stroke-linejoin:miter;" x="120.4" xlink:href="#mc71cbad814" y="143.2525"/>
     </g>
    </g>
    <g id="text_20">
     <!-- needle4 -->
     <g transform="translate(149.2 148.8525)scale(0.16 -0.16)">
      <use xlink:href="#DejaVuSans-110"/>
      <use x="63.378906" xlink:href="#DejaVuSans-101"/>
      <use x="124.902344" xlink:href="#DejaVuSans-101"/>
      <use x="186.425781" xlink:href="#DejaVuSans-100"/>
      <use x="249.902344" xlink:href="#DejaVuSans-108"/>
      <use x="277.685547" xlink:href="#DejaVuSans-101"/>
      <use x="339.208984" xlink:href="#DejaVuSans-52"/>
     </g>
    </g>
    <g id="line2d_31">
     <path d="M 104.4 166.7375 
L 136.4 166.7375 
" style="fill:none;stroke:#9467bd;stroke-linecap:square;stroke-width:1.5;"/>
    </g>
    <g id="line2d_32">
     <g>
      <use style="fill:#9467bd;stroke:#9467bd;" x="120.4" xlink:href="#m0ed3892a51" y="166.7375"/>
     </g>
    </g>
    <g id="text_21">
     <!-- needle5 -->
     <g transform="translate(149.2 172.3375)scale(0.16 -0.16)">
      <use xlink:href="#DejaVuSans-110"/>
      <use x="63.378906" xlink:href="#DejaVuSans-101"/>
      <use x="124.902344" xlink:href="#DejaVuSans-101"/>
      <use x="186.425781" xlink:href="#DejaVuSans-100"/>
      <use x="249.902344" xlink:href="#DejaVuSans-108"/>
      <use x="277.685547" xlink:href="#DejaVuSans-101"/>
      <use x="339.208984" xlink:href="#DejaVuSans-53"/>
     </g>
    </g>
    <g id="line2d_33">
     <path d="M 104.4 190.2225 
L 136.4 190.2225 
" style="fill:none;stroke:#8c564b;stroke-linecap:square;stroke-width:1.5;"/>
    </g>
    <g id="line2d_34">
     <g>
      <use style="fill:#8c564b;stroke:#8c564b;stroke-linejoin:bevel;" x="120.4" xlink:href="#m02bb94777e" y="190.2225"/>
     </g>
    </g>
    <g id="text_22">
     <!-- needle6 -->
     <g transform="translate(149.2 195.8225)scale(0.16 -0.16)">
      <use xlink:href="#DejaVuSans-110"/>
      <use x="63.378906" xlink:href="#DejaVuSans-101"/>
      <use x="124.902344" xlink:href="#DejaVuSans-101"/>
      <use x="186.425781" xlink:href="#DejaVuSans-100"/>
      <use x="249.902344" xlink:href="#DejaVuSans-108"/>
      <use x="277.685547" xlink:href="#DejaVuSans-101"/>
      <use x="339.208984" xlink:href="#DejaVuSans-54"/>
     </g>
    </g>
    <g id="line2d_35">
     <path d="M 104.4 213.7075 
L 136.4 213.7075 
" style="fill:none;stroke:#e377c2;stroke-linecap:square;stroke-width:1.5;"/>
    </g>
    <g id="line2d_36">
     <g>
      <use style="fill:#e377c2;stroke:#e377c2;stroke-linejoin:miter;" x="120.4" xlink:href="#m919e2cb542" y="213.7075"/>
     </g>
    </g>
    <g id="text_23">
     <!-- needle7 -->
     <defs>
      <path d="M 8.203125 72.90625 
L 55.078125 72.90625 
L 55.078125 68.703125 
L 28.609375 0 
L 18.3125 0 
L 43.21875 64.59375 
L 8.203125 64.59375 
z
" id="DejaVuSans-55"/>
     </defs>
     <g transform="translate(149.2 219.3075)scale(0.16 -0.16)">
      <use xlink:href="#DejaVuSans-110"/>
      <use x="63.378906" xlink:href="#DejaVuSans-101"/>
      <use x="124.902344" xlink:href="#DejaVuSans-101"/>
      <use x="186.425781" xlink:href="#DejaVuSans-100"/>
      <use x="249.902344" xlink:href="#DejaVuSans-108"/>
      <use x="277.685547" xlink:href="#DejaVuSans-101"/>
      <use x="339.208984" xlink:href="#DejaVuSans-55"/>
     </g>
    </g>
    <g id="line2d_37">
     <path d="M 104.4 237.1925 
L 136.4 237.1925 
" style="fill:none;stroke:#7f7f7f;stroke-linecap:square;stroke-width:1.5;"/>
    </g>
    <g id="line2d_38">
     <g>
      <use style="fill:#7f7f7f;stroke:#7f7f7f;stroke-linejoin:miter;" x="120.4" xlink:href="#m02566c5f14" y="237.1925"/>
     </g>
    </g>
    <g id="text_24">
     <!-- needle8 -->
     <g transform="translate(149.2 242.7925)scale(0.16 -0.16)">
      <use xlink:href="#DejaVuSans-110"/>
      <use x="63.378906" xlink:href="#DejaVuSans-101"/>
      <use x="124.902344" xlink:href="#DejaVuSans-101"/>
      <use x="186.425781" xlink:href="#DejaVuSans-100"/>
      <use x="249.902344" xlink:href="#DejaVuSans-108"/>
      <use x="277.685547" xlink:href="#DejaVuSans-101"/>
      <use x="339.208984" xlink:href="#DejaVuSans-56"/>
     </g>
    </g>
   </g>
  </g>
  <g id="text_25">
   <!-- a) Measured needle profiles -->
   <defs>
    <path d="M 9.8125 72.90625 
L 24.515625 72.90625 
L 43.109375 23.296875 
L 61.8125 72.90625 
L 76.515625 72.90625 
L 76.515625 0 
L 66.890625 0 
L 66.890625 64.015625 
L 48.09375 14.015625 
L 38.1875 14.015625 
L 19.390625 64.015625 
L 19.390625 0 
L 9.8125 0 
z
" id="DejaVuSans-77"/>
    <path d="M 8.5 21.578125 
L 8.5 54.6875 
L 17.484375 54.6875 
L 17.484375 21.921875 
Q 17.484375 14.15625 20.5 10.265625 
Q 23.53125 6.390625 29.59375 6.390625 
Q 36.859375 6.390625 41.078125 11.03125 
Q 45.3125 15.671875 45.3125 23.6875 
L 45.3125 54.6875 
L 54.296875 54.6875 
L 54.296875 0 
L 45.3125 0 
L 45.3125 8.40625 
Q 42.046875 3.421875 37.71875 1 
Q 33.40625 -1.421875 27.6875 -1.421875 
Q 18.265625 -1.421875 13.375 4.4375 
Q 8.5 10.296875 8.5 21.578125 
z
M 31.109375 56 
z
" id="DejaVuSans-117"/>
   </defs>
   <g transform="translate(226.0155 23.229)scale(0.192 -0.192)">
    <use xlink:href="#DejaVuSans-97"/>
    <use x="61.279297" xlink:href="#DejaVuSans-41"/>
    <use x="100.292969" xlink:href="#DejaVuSans-32"/>
    <use x="132.080078" xlink:href="#DejaVuSans-77"/>
    <use x="218.359375" xlink:href="#DejaVuSans-101"/>
    <use x="279.882812" xlink:href="#DejaVuSans-97"/>
    <use x="341.162109" xlink:href="#DejaVuSans-115"/>
    <use x="393.261719" xlink:href="#DejaVuSans-117"/>
    <use x="456.640625" xlink:href="#DejaVuSans-114"/>
    <use x="497.722656" xlink:href="#DejaVuSans-101"/>
    <use x="559.246094" xlink:href="#DejaVuSans-100"/>
    <use x="622.722656" xlink:href="#DejaVuSans-32"/>
    <use x="654.509766" xlink:href="#DejaVuSans-110"/>
    <use x="717.888672" xlink:href="#DejaVuSans-101"/>
    <use x="779.412109" xlink:href="#DejaVuSans-101"/>
    <use x="840.935547" xlink:href="#DejaVuSans-100"/>
    <use x="904.412109" xlink:href="#DejaVuSans-108"/>
    <use x="932.195312" xlink:href="#DejaVuSans-101"/>
    <use x="993.71875" xlink:href="#DejaVuSans-32"/>
    <use x="1025.505859" xlink:href="#DejaVuSans-112"/>
    <use x="1088.982422" xlink:href="#DejaVuSans-114"/>
    <use x="1130.064453" xlink:href="#DejaVuSans-111"/>
    <use x="1191.246094" xlink:href="#DejaVuSans-102"/>
    <use x="1226.451172" xlink:href="#DejaVuSans-105"/>
    <use x="1254.234375" xlink:href="#DejaVuSans-108"/>
    <use x="1282.017578" xlink:href="#DejaVuSans-101"/>
    <use x="1343.541016" xlink:href="#DejaVuSans-115"/>
   </g>
  </g>
 </g>
 <defs>
  <clipPath id="pe45e60a204">
   <rect height="326.16" width="558" x="90" y="51.84"/>
  </clipPath>
 </defs>
</svg>
