<?xml version="1.0" encoding="UTF-8" standalone="no"?>
<svg
   xmlns:dc="http://purl.org/dc/elements/1.1/"
   xmlns:cc="http://creativecommons.org/ns#"
   xmlns:rdf="http://www.w3.org/1999/02/22-rdf-syntax-ns#"
   xmlns:svg="http://www.w3.org/2000/svg"
   xmlns="http://www.w3.org/2000/svg"
   xmlns:xlink="http://www.w3.org/1999/xlink"
   xmlns:sodipodi="http://sodipodi.sourceforge.net/DTD/sodipodi-0.dtd"
   xmlns:inkscape="http://www.inkscape.org/namespaces/inkscape"
   height="144pt"
   version="1.1"
   viewBox="0 0 1152 144"
   width="1152pt"
   id="svg370"
   sodipodi:docname="R2fit_straightness.svg"
   inkscape:version="1.0.2 (e86c870879, 2021-01-15)">
  <metadata
     id="metadata374">
    <rdf:RDF>
      <cc:Work
         rdf:about="">
        <dc:format>image/svg+xml</dc:format>
        <dc:type
           rdf:resource="http://purl.org/dc/dcmitype/StillImage" />
      </cc:Work>
    </rdf:RDF>
  </metadata>
  <sodipodi:namedview
     pagecolor="#ffffff"
     bordercolor="#666666"
     borderopacity="1"
     objecttolerance="10"
     gridtolerance="10"
     guidetolerance="10"
     inkscape:pageopacity="0"
     inkscape:pageshadow="2"
     inkscape:window-width="1920"
     inkscape:window-height="1017"
     id="namedview372"
     showgrid="false"
     inkscape:zoom="0.69010417"
     inkscape:cx="768"
     inkscape:cy="96"
     inkscape:window-x="-8"
     inkscape:window-y="-8"
     inkscape:window-maximized="1"
     inkscape:current-layer="svg370" />
  <defs
     id="defs4">
    <style
       type="text/css"
       id="style2">
*{stroke-linecap:butt;stroke-linejoin:round;}
  </style>
  </defs>
  <g
     id="axes_1">
    <g
       id="patch_2">
      <path
         d="m 144,126 h 892.8 V 17.28 H 144 Z"
         style="fill:#ffffff"
         id="path9" />
    </g>
    <g
       id="matplotlib.axis_1">
      <g
         id="xtick_1">
        <g
           id="line2d_1">
          <defs
             id="defs13">
            <path
               d="M 0,0 V 3.5"
               id="m4915ebf0f3"
               style="stroke:#000000;stroke-width:0.8" />
          </defs>
          <g
             id="g17">
            <use
               style="stroke:#000000;stroke-width:0.8"
               x="184.58182"
               xlink:href="#m4915ebf0f3"
               y="126"
               id="use15"
               width="100%"
               height="100%" />
          </g>
        </g>
        <g
           id="text_1">
          <!-- 1 -->
          <defs
             id="defs21">
            <path
               d="m 12.40625,8.296875 h 16.109375 v 55.625 L 10.984375,60.40625 v 8.984375 l 17.4375,3.515625 H 38.28125 V 8.296875 H 54.390625 V 0 H 12.40625 Z"
               id="DejaVuSans-49" />
          </defs>
          <g
             transform="matrix(0.1,0,0,-0.1,181.40057,140.59844)"
             id="g25">
            <use
               xlink:href="#DejaVuSans-49"
               id="use23"
               x="0"
               y="0"
               width="100%"
               height="100%" />
          </g>
        </g>
      </g>
      <g
         id="xtick_2">
        <g
           id="line2d_2">
          <g
             id="g31">
            <use
               style="stroke:#000000;stroke-width:0.8"
               x="286.03638"
               xlink:href="#m4915ebf0f3"
               y="126"
               id="use29"
               width="100%"
               height="100%" />
          </g>
        </g>
        <g
           id="text_2">
          <!-- 2 -->
          <defs
             id="defs35">
            <path
               d="M 19.1875,8.296875 H 53.609375 V 0 H 7.328125 v 8.296875 q 5.609375,5.8125 15.296875,15.59375 9.703125,9.796875 12.1875,12.640625 4.734375,5.3125 6.609375,9 1.890625,3.6875 1.890625,7.25 0,5.8125 -4.078125,9.46875 -4.078125,3.671875 -10.625,3.671875 -4.640625,0 -9.796875,-1.609375 -5.140625,-1.609375 -11,-4.890625 v 9.96875 Q 13.765625,71.78125 18.9375,73 q 5.1875,1.21875 9.484375,1.21875 11.328125,0 18.0625,-5.671875 6.734375,-5.65625 6.734375,-15.125 0,-4.5 -1.6875,-8.53125 Q 49.859375,40.875 45.40625,35.40625 44.1875,33.984375 37.640625,27.21875 31.109375,20.453125 19.1875,8.296875 Z"
               id="DejaVuSans-50" />
          </defs>
          <g
             transform="matrix(0.1,0,0,-0.1,282.85511,140.59844)"
             id="g39">
            <use
               xlink:href="#DejaVuSans-50"
               id="use37"
               x="0"
               y="0"
               width="100%"
               height="100%" />
          </g>
        </g>
      </g>
      <g
         id="xtick_3">
        <g
           id="line2d_3">
          <g
             id="g45">
            <use
               style="stroke:#000000;stroke-width:0.8"
               x="387.49091"
               xlink:href="#m4915ebf0f3"
               y="126"
               id="use43"
               width="100%"
               height="100%" />
          </g>
        </g>
        <g
           id="text_3">
          <!-- 3 -->
          <defs
             id="defs49">
            <path
               d="M 40.578125,39.3125 Q 47.65625,37.796875 51.625,33 q 3.984375,-4.78125 3.984375,-11.8125 0,-10.78125 -7.421875,-16.703125 -7.421875,-5.90625 -21.09375,-5.90625 -4.578125,0 -9.4375,0.90625 -4.859375,0.90625 -10.03125,2.71875 v 9.515625 q 4.09375,-2.390625 8.96875,-3.609375 4.890625,-1.21875 10.21875,-1.21875 9.265625,0 14.125,3.65625 4.859375,3.65625 4.859375,10.640625 0,6.453125 -4.515625,10.078125 -4.515625,3.640625 -12.5625,3.640625 h -8.5 v 8.109375 h 8.890625 q 7.265625,0 11.125,2.90625 3.859375,2.90625 3.859375,8.375 0,5.609375 -3.984375,8.609375 -3.96875,3.015625 -11.390625,3.015625 -4.0625,0 -8.703125,-0.890625 Q 15.375,64.15625 9.8125,62.3125 v 8.78125 q 5.625,1.5625 10.53125,2.34375 4.90625,0.78125 9.25,0.78125 11.234375,0 17.765625,-5.109375 6.546875,-5.09375 6.546875,-13.78125 0,-6.0625 -3.46875,-10.234375 -3.46875,-4.171875 -9.859375,-5.78125 z"
               id="DejaVuSans-51" />
          </defs>
          <g
             transform="matrix(0.1,0,0,-0.1,384.30966,140.59844)"
             id="g53">
            <use
               xlink:href="#DejaVuSans-51"
               id="use51"
               x="0"
               y="0"
               width="100%"
               height="100%" />
          </g>
        </g>
      </g>
      <g
         id="xtick_4">
        <g
           id="line2d_4">
          <g
             id="g59">
            <use
               style="stroke:#000000;stroke-width:0.8"
               x="488.94547"
               xlink:href="#m4915ebf0f3"
               y="126"
               id="use57"
               width="100%"
               height="100%" />
          </g>
        </g>
        <g
           id="text_4">
          <!-- 4 -->
          <defs
             id="defs63">
            <path
               d="M 37.796875,64.3125 12.890625,25.390625 h 24.90625 z m -2.59375,8.59375 h 12.40625 V 25.390625 h 10.40625 V 17.1875 H 47.609375 V 0 h -9.8125 V 17.1875 H 4.890625 v 9.515625 z"
               id="DejaVuSans-52" />
          </defs>
          <g
             transform="matrix(0.1,0,0,-0.1,485.7642,140.59844)"
             id="g67">
            <use
               xlink:href="#DejaVuSans-52"
               id="use65"
               x="0"
               y="0"
               width="100%"
               height="100%" />
          </g>
        </g>
      </g>
      <g
         id="xtick_5">
        <g
           id="line2d_5">
          <g
             id="g73">
            <use
               style="stroke:#000000;stroke-width:0.8"
               x="590.40002"
               xlink:href="#m4915ebf0f3"
               y="126"
               id="use71"
               width="100%"
               height="100%" />
          </g>
        </g>
        <g
           id="text_5">
          <!-- 5 -->
          <defs
             id="defs77">
            <path
               d="m 10.796875,72.90625 h 38.71875 v -8.3125 h -29.6875 V 46.734375 q 2.140625,0.734375 4.28125,1.09375 2.15625,0.359375 4.3125,0.359375 Q 40.625,48.1875 47.75,41.5 54.890625,34.8125 54.890625,23.390625 54.890625,11.625 47.5625,5.09375 40.234375,-1.421875 26.90625,-1.421875 q -4.59375,0 -9.359375,0.78125 -4.75,0.78125 -9.828125,2.34375 V 11.625 q 4.390625,-2.390625 9.078125,-3.5625 4.6875,-1.171875 9.90625,-1.171875 8.453125,0 13.375,4.4375 4.9375,4.4375 4.9375,12.0625 0,7.609375 -4.9375,12.046875 -4.921875,4.453125 -13.375,4.453125 -3.953125,0 -7.890625,-0.875 -3.921875,-0.875 -8.015625,-2.734375 z"
               id="DejaVuSans-53" />
          </defs>
          <g
             transform="matrix(0.1,0,0,-0.1,587.21875,140.59844)"
             id="g81">
            <use
               xlink:href="#DejaVuSans-53"
               id="use79"
               x="0"
               y="0"
               width="100%"
               height="100%" />
          </g>
        </g>
      </g>
      <g
         id="xtick_6">
        <g
           id="line2d_6">
          <g
             id="g87">
            <use
               style="stroke:#000000;stroke-width:0.8"
               x="691.85455"
               xlink:href="#m4915ebf0f3"
               y="126"
               id="use85"
               width="100%"
               height="100%" />
          </g>
        </g>
        <g
           id="text_6">
          <!-- 6 -->
          <defs
             id="defs91">
            <path
               d="m 33.015625,40.375 q -6.640625,0 -10.53125,-4.546875 -3.875,-4.53125 -3.875,-12.4375 0,-7.859375 3.875,-12.4375 3.890625,-4.5625 10.53125,-4.5625 6.640625,0 10.515625,4.5625 3.875,4.578125 3.875,12.4375 0,7.90625 -3.875,12.4375 Q 39.65625,40.375 33.015625,40.375 Z M 52.59375,71.296875 V 62.3125 q -3.71875,1.75 -7.5,2.671875 -3.78125,0.9375 -7.5,0.9375 -9.765625,0 -14.921875,-6.59375 -5.140625,-6.59375 -5.875,-19.921875 2.875,4.25 7.21875,6.515625 4.359375,2.265625 9.578125,2.265625 10.984375,0 17.359375,-6.671875 6.375,-6.65625 6.375,-18.125 0,-11.234375 -6.640625,-18.03125 -6.640625,-6.78125 -17.671875,-6.78125 -12.65625,0 -19.34375,9.6875 -6.6875,9.703125 -6.6875,28.109375 0,17.28125 8.203125,27.5625 8.203125,10.28125 22.015625,10.28125 3.71875,0 7.5,-0.734375 3.78125,-0.734375 7.890625,-2.1875 z"
               id="DejaVuSans-54" />
          </defs>
          <g
             transform="matrix(0.1,0,0,-0.1,688.6733,140.59844)"
             id="g95">
            <use
               xlink:href="#DejaVuSans-54"
               id="use93"
               x="0"
               y="0"
               width="100%"
               height="100%" />
          </g>
        </g>
      </g>
      <g
         id="xtick_7">
        <g
           id="line2d_7">
          <g
             id="g101">
            <use
               style="stroke:#000000;stroke-width:0.8"
               x="793.30908"
               xlink:href="#m4915ebf0f3"
               y="126"
               id="use99"
               width="100%"
               height="100%" />
          </g>
        </g>
        <g
           id="text_7">
          <!-- 7 -->
          <defs
             id="defs105">
            <path
               d="m 8.203125,72.90625 h 46.875 V 68.703125 L 28.609375,0 H 18.3125 L 43.21875,64.59375 H 8.203125 Z"
               id="DejaVuSans-55" />
          </defs>
          <g
             transform="matrix(0.1,0,0,-0.1,790.12784,140.59844)"
             id="g109">
            <use
               xlink:href="#DejaVuSans-55"
               id="use107"
               x="0"
               y="0"
               width="100%"
               height="100%" />
          </g>
        </g>
      </g>
      <g
         id="xtick_8">
        <g
           id="line2d_8">
          <g
             id="g115">
            <use
               style="stroke:#000000;stroke-width:0.8"
               x="894.76361"
               xlink:href="#m4915ebf0f3"
               y="126"
               id="use113"
               width="100%"
               height="100%" />
          </g>
        </g>
        <g
           id="text_8">
          <!-- 8 -->
          <defs
             id="defs119">
            <path
               d="m 31.78125,34.625 q -7.03125,0 -11.0625,-3.765625 -4.015625,-3.765625 -4.015625,-10.34375 0,-6.59375 4.015625,-10.359375 4.03125,-3.765625 11.0625,-3.765625 7.03125,0 11.078125,3.78125 4.0625,3.796875 4.0625,10.34375 0,6.578125 -4.03125,10.34375 Q 38.875,34.625 31.78125,34.625 Z m -9.859375,4.1875 Q 15.578125,40.375 12.03125,44.71875 8.5,49.078125 8.5,55.328125 q 0,8.734375 6.21875,13.8125 6.234375,5.078125 17.0625,5.078125 10.890625,0 17.09375,-5.078125 6.203125,-5.078125 6.203125,-13.8125 0,-6.25 -3.546875,-10.609375 Q 48,40.375 41.703125,38.8125 q 7.125,-1.65625 11.09375,-6.5 3.984375,-4.828125 3.984375,-11.796875 0,-10.609375 -6.46875,-16.28125 -6.46875,-5.65625 -18.53125,-5.65625 -12.046875,0 -18.53125,5.65625 -6.46875,5.671875 -6.46875,16.28125 0,6.96875 4,11.796875 4.015625,4.84375 11.140625,6.5 z M 18.3125,54.390625 q 0,-5.65625 3.53125,-8.828125 3.546875,-3.171875 9.9375,-3.171875 6.359375,0 9.9375,3.171875 3.59375,3.171875 3.59375,8.828125 0,5.671875 -3.59375,8.84375 -3.578125,3.171875 -9.9375,3.171875 -6.390625,0 -9.9375,-3.171875 Q 18.3125,60.0625 18.3125,54.390625 Z"
               id="DejaVuSans-56" />
          </defs>
          <g
             transform="matrix(0.1,0,0,-0.1,891.58239,140.59844)"
             id="g123">
            <use
               xlink:href="#DejaVuSans-56"
               id="use121"
               x="0"
               y="0"
               width="100%"
               height="100%" />
          </g>
        </g>
      </g>
      <g
         id="xtick_9">
        <g
           id="line2d_9">
          <g
             id="g129">
            <use
               style="stroke:#000000;stroke-width:0.8"
               x="996.2182"
               xlink:href="#m4915ebf0f3"
               y="126"
               id="use127"
               width="100%"
               height="100%" />
          </g>
        </g>
        <g
           id="text_9">
          <!-- 9 -->
          <defs
             id="defs133">
            <path
               d="M 10.984375,1.515625 V 10.5 Q 14.703125,8.734375 18.5,7.8125 q 3.8125,-0.921875 7.484375,-0.921875 9.765625,0 14.90625,6.5625 5.15625,6.5625 5.890625,19.953125 -2.828125,-4.203125 -7.1875,-6.453125 -4.34375,-2.25 -9.609375,-2.25 -10.9375,0 -17.3125,6.609375 -6.375,6.625 -6.375,18.109375 0,11.21875 6.640625,18 6.640625,6.796875 17.671875,6.796875 12.65625,0 19.3125,-9.703125 6.671875,-9.6875 6.671875,-28.140625 0,-17.234375 -8.1875,-27.515625 -8.171875,-10.28125 -21.984375,-10.28125 -3.71875,0 -7.53125,0.734375 -3.796875,0.734375 -7.90625,2.203125 z m 19.625,30.90625 q 6.640625,0 10.515625,4.53125 3.890625,4.546875 3.890625,12.46875 0,7.859375 -3.890625,12.421875 -3.875,4.5625 -10.515625,4.5625 -6.640625,0 -10.515625,-4.5625 -3.875,-4.5625 -3.875,-12.421875 0,-7.921875 3.875,-12.46875 3.875,-4.53125 10.515625,-4.53125 z"
               id="DejaVuSans-57" />
          </defs>
          <g
             transform="matrix(0.1,0,0,-0.1,993.03693,140.59844)"
             id="g137">
            <use
               xlink:href="#DejaVuSans-57"
               id="use135"
               x="0"
               y="0"
               width="100%"
               height="100%" />
          </g>
        </g>
      </g>
      <g
         id="text_10">
        <!-- Needle number -->
        <defs
           id="defs151">
          <path
             d="M 9.8125,72.90625 H 23.09375 L 55.421875,11.921875 V 72.90625 h 9.5625 V 0 h -13.28125 l -32.3125,60.984375 V 0 H 9.8125 Z"
             id="DejaVuSans-78" />
          <path
             d="m 56.203125,29.59375 v -4.390625 h -41.3125 q 0.59375,-9.28125 5.59375,-14.140625 5,-4.859375 13.9375,-4.859375 5.171875,0 10.03125,1.265625 4.859375,1.265625 9.65625,3.8125 v -8.5 q -4.84375,-2.046875 -9.921875,-3.125 -5.078125,-1.078125 -10.296875,-1.078125 -13.09375,0 -20.734375,7.609375 -7.640625,7.625 -7.640625,20.625 0,13.421875 7.25,21.296875 Q 20.015625,56 32.328125,56 q 11.03125,0 17.453125,-7.109375 6.421875,-7.09375 6.421875,-19.296875 z m -8.984375,2.640625 q -0.09375,7.359375 -4.125,11.75 -4.03125,4.40625 -10.671875,4.40625 -7.515625,0 -12.03125,-4.25 -4.515625,-4.25 -5.203125,-11.96875 z"
             id="DejaVuSans-101" />
          <path
             d="m 45.40625,46.390625 v 29.59375 h 8.984375 V 0 H 45.40625 v 8.203125 q -2.828125,-4.875 -7.15625,-7.25 -4.3125,-2.375 -10.375,-2.375 -9.90625,0 -16.140625,7.90625 -6.21875,7.921875 -6.21875,20.8125 0,12.890625 6.21875,20.796875 Q 17.96875,56 27.875,56 q 6.0625,0 10.375,-2.375 4.328125,-2.359375 7.15625,-7.234375 z M 14.796875,27.296875 q 0,-9.90625 4.078125,-15.546875 4.078125,-5.640625 11.203125,-5.640625 7.125,0 11.21875,5.640625 4.109375,5.640625 4.109375,15.546875 0,9.90625 -4.109375,15.546875 -4.09375,5.640625 -11.21875,5.640625 -7.125,0 -11.203125,-5.640625 -4.078125,-5.640625 -4.078125,-15.546875 z"
             id="DejaVuSans-100" />
          <path
             d="M 9.421875,75.984375 H 18.40625 V 0 H 9.421875 Z"
             id="DejaVuSans-108" />
          <path
             id="DejaVuSans-32"
             d="" />
          <path
             d="M 54.890625,33.015625 V 0 H 45.90625 v 32.71875 q 0,7.765625 -3.03125,11.609375 -3.03125,3.859375 -9.078125,3.859375 -7.28125,0 -11.484375,-4.640625 -4.203125,-4.625 -4.203125,-12.640625 V 0 h -9.03125 v 54.6875 h 9.03125 v -8.5 q 3.234375,4.9375 7.59375,7.375 4.375,2.4375 10.09375,2.4375 9.421875,0 14.25,-5.828125 4.84375,-5.828125 4.84375,-17.15625 z"
             id="DejaVuSans-110" />
          <path
             d="M 8.5,21.578125 V 54.6875 h 8.984375 V 21.921875 q 0,-7.765625 3.015625,-11.65625 3.03125,-3.875 9.09375,-3.875 7.265625,0 11.484375,4.640625 4.234375,4.640625 4.234375,12.65625 v 31 h 8.984375 V 0 H 45.3125 V 8.40625 Q 42.046875,3.421875 37.71875,1 33.40625,-1.421875 27.6875,-1.421875 18.265625,-1.421875 13.375,4.4375 8.5,10.296875 8.5,21.578125 Z M 31.109375,56 Z"
             id="DejaVuSans-117" />
          <path
             d="M 52,44.1875 Q 55.375,50.25 60.0625,53.125 64.75,56 71.09375,56 q 8.546875,0 13.1875,-5.984375 4.640625,-5.96875 4.640625,-17 V 0 h -9.03125 v 32.71875 q 0,7.859375 -2.796875,11.65625 -2.78125,3.8125 -8.484375,3.8125 -6.984375,0 -11.046875,-4.640625 -4.046875,-4.625 -4.046875,-12.640625 V 0 h -9.03125 v 32.71875 q 0,7.90625 -2.78125,11.6875 -2.78125,3.78125 -8.59375,3.78125 -6.890625,0 -10.953125,-4.65625 -4.046875,-4.65625 -4.046875,-12.625 V 0 h -9.03125 v 54.6875 h 9.03125 v -8.5 q 3.078125,5.03125 7.375,7.421875 Q 29.78125,56 35.6875,56 41.65625,56 45.828125,52.96875 50,49.953125 52,44.1875 Z"
             id="DejaVuSans-109" />
          <path
             d="m 48.6875,27.296875 q 0,9.90625 -4.078125,15.546875 -4.078125,5.640625 -11.203125,5.640625 -7.140625,0 -11.21875,-5.640625 -4.078125,-5.640625 -4.078125,-15.546875 0,-9.90625 4.078125,-15.546875 4.078125,-5.640625 11.21875,-5.640625 7.125,0 11.203125,5.640625 4.078125,5.640625 4.078125,15.546875 z m -30.578125,19.09375 q 2.84375,4.875 7.15625,7.234375 Q 29.59375,56 35.59375,56 q 9.96875,0 16.1875,-7.90625 6.234375,-7.90625 6.234375,-20.796875 0,-12.890625 -6.234375,-20.8125 -6.21875,-7.90625 -16.1875,-7.90625 -6,0 -10.328125,2.375 -4.3125,2.375 -7.15625,7.25 V 0 h -9.03125 v 75.984375 h 9.03125 z"
             id="DejaVuSans-98" />
          <path
             d="m 41.109375,46.296875 q -1.515625,0.875 -3.296875,1.28125 Q 36.03125,48 33.890625,48 26.265625,48 22.1875,43.046875 18.109375,38.09375 18.109375,28.8125 V 0 h -9.03125 v 54.6875 h 9.03125 v -8.5 q 2.84375,4.984375 7.375,7.390625 Q 30.03125,56 36.53125,56 q 0.921875,0 2.046875,-0.125 1.125,-0.109375 2.484375,-0.359375 z"
             id="DejaVuSans-114" />
        </defs>
        <g
           transform="matrix(0.14,0,0,-0.14,536.30859,157.31594)"
           id="g179">
          <use
             xlink:href="#DejaVuSans-78"
             id="use153"
             x="0"
             y="0"
             width="100%"
             height="100%" />
          <use
             x="74.804688"
             xlink:href="#DejaVuSans-101"
             id="use155"
             y="0"
             width="100%"
             height="100%" />
          <use
             x="136.32812"
             xlink:href="#DejaVuSans-101"
             id="use157"
             y="0"
             width="100%"
             height="100%" />
          <use
             x="197.85156"
             xlink:href="#DejaVuSans-100"
             id="use159"
             y="0"
             width="100%"
             height="100%" />
          <use
             x="261.32812"
             xlink:href="#DejaVuSans-108"
             id="use161"
             y="0"
             width="100%"
             height="100%" />
          <use
             x="289.11133"
             xlink:href="#DejaVuSans-101"
             id="use163"
             y="0"
             width="100%"
             height="100%" />
          <use
             x="350.63477"
             xlink:href="#DejaVuSans-32"
             id="use165"
             y="0"
             width="100%"
             height="100%" />
          <use
             x="382.42188"
             xlink:href="#DejaVuSans-110"
             id="use167"
             y="0"
             width="100%"
             height="100%" />
          <use
             x="445.80078"
             xlink:href="#DejaVuSans-117"
             id="use169"
             y="0"
             width="100%"
             height="100%" />
          <use
             x="509.17969"
             xlink:href="#DejaVuSans-109"
             id="use171"
             y="0"
             width="100%"
             height="100%" />
          <use
             x="606.5918"
             xlink:href="#DejaVuSans-98"
             id="use173"
             y="0"
             width="100%"
             height="100%" />
          <use
             x="670.06836"
             xlink:href="#DejaVuSans-101"
             id="use175"
             y="0"
             width="100%"
             height="100%" />
          <use
             x="731.5918"
             xlink:href="#DejaVuSans-114"
             id="use177"
             y="0"
             width="100%"
             height="100%" />
        </g>
      </g>
    </g>
    <g
       id="matplotlib.axis_2">
      <g
         id="ytick_1">
        <g
           id="line2d_10">
          <defs
             id="defs184">
            <path
               d="M 0,0 H -3.5"
               id="m8e399e5a31"
               style="stroke:#000000;stroke-width:0.8" />
          </defs>
          <g
             id="g188">
            <use
               style="stroke:#000000;stroke-width:0.8"
               x="144"
               xlink:href="#m8e399e5a31"
               y="121.05818"
               id="use186"
               width="100%"
               height="100%" />
          </g>
        </g>
        <g
           id="text_11">
          <!-- 0.992 -->
          <defs
             id="defs193">
            <path
               d="m 31.78125,66.40625 q -7.609375,0 -11.453125,-7.5 Q 16.5,51.421875 16.5,36.375 q 0,-14.984375 3.828125,-22.484375 3.84375,-7.5 11.453125,-7.5 7.671875,0 11.5,7.5 3.84375,7.5 3.84375,22.484375 0,15.046875 -3.84375,22.53125 -3.828125,7.5 -11.5,7.5 z m 0,7.8125 q 12.265625,0 18.734375,-9.703125 6.46875,-9.6875 6.46875,-28.140625 0,-18.40625 -6.46875,-28.109375 -6.46875,-9.6875 -18.734375,-9.6875 -12.25,0 -18.71875,9.6875 Q 6.59375,17.96875 6.59375,36.375 q 0,18.453125 6.46875,28.140625 6.46875,9.703125 18.71875,9.703125 z"
               id="DejaVuSans-48" />
            <path
               d="M 10.6875,12.40625 H 21 V 0 H 10.6875 Z"
               id="DejaVuSans-46" />
          </defs>
          <g
             transform="matrix(0.1,0,0,-0.1,108.37188,124.8574)"
             id="g205">
            <use
               xlink:href="#DejaVuSans-48"
               id="use195"
               x="0"
               y="0"
               width="100%"
               height="100%" />
            <use
               x="63.623047"
               xlink:href="#DejaVuSans-46"
               id="use197"
               y="0"
               width="100%"
               height="100%" />
            <use
               x="95.410156"
               xlink:href="#DejaVuSans-57"
               id="use199"
               y="0"
               width="100%"
               height="100%" />
            <use
               x="159.0332"
               xlink:href="#DejaVuSans-57"
               id="use201"
               y="0"
               width="100%"
               height="100%" />
            <use
               x="222.65625"
               xlink:href="#DejaVuSans-50"
               id="use203"
               y="0"
               width="100%"
               height="100%" />
          </g>
        </g>
      </g>
      <g
         id="ytick_2">
        <g
           id="line2d_11">
          <g
             id="g211">
            <use
               style="stroke:#000000;stroke-width:0.8"
               x="144"
               xlink:href="#m8e399e5a31"
               y="96.349091"
               id="use209"
               width="100%"
               height="100%" />
          </g>
        </g>
        <g
           id="text_12">
          <!-- 0.994 -->
          <g
             transform="matrix(0.1,0,0,-0.1,108.37188,100.14831)"
             id="g224">
            <use
               xlink:href="#DejaVuSans-48"
               id="use214"
               x="0"
               y="0"
               width="100%"
               height="100%" />
            <use
               x="63.623047"
               xlink:href="#DejaVuSans-46"
               id="use216"
               y="0"
               width="100%"
               height="100%" />
            <use
               x="95.410156"
               xlink:href="#DejaVuSans-57"
               id="use218"
               y="0"
               width="100%"
               height="100%" />
            <use
               x="159.0332"
               xlink:href="#DejaVuSans-57"
               id="use220"
               y="0"
               width="100%"
               height="100%" />
            <use
               x="222.65625"
               xlink:href="#DejaVuSans-52"
               id="use222"
               y="0"
               width="100%"
               height="100%" />
          </g>
        </g>
      </g>
      <g
         id="ytick_3">
        <g
           id="line2d_12">
          <g
             id="g230">
            <use
               style="stroke:#000000;stroke-width:0.8"
               x="144"
               xlink:href="#m8e399e5a31"
               y="71.639999"
               id="use228"
               width="100%"
               height="100%" />
          </g>
        </g>
        <g
           id="text_13">
          <!-- 0.996 -->
          <g
             transform="matrix(0.1,0,0,-0.1,108.37188,75.439219)"
             id="g243">
            <use
               xlink:href="#DejaVuSans-48"
               id="use233"
               x="0"
               y="0"
               width="100%"
               height="100%" />
            <use
               x="63.623047"
               xlink:href="#DejaVuSans-46"
               id="use235"
               y="0"
               width="100%"
               height="100%" />
            <use
               x="95.410156"
               xlink:href="#DejaVuSans-57"
               id="use237"
               y="0"
               width="100%"
               height="100%" />
            <use
               x="159.0332"
               xlink:href="#DejaVuSans-57"
               id="use239"
               y="0"
               width="100%"
               height="100%" />
            <use
               x="222.65625"
               xlink:href="#DejaVuSans-54"
               id="use241"
               y="0"
               width="100%"
               height="100%" />
          </g>
        </g>
      </g>
      <g
         id="ytick_4">
        <g
           id="line2d_13">
          <g
             id="g249">
            <use
               style="stroke:#000000;stroke-width:0.8"
               x="144"
               xlink:href="#m8e399e5a31"
               y="46.930908"
               id="use247"
               width="100%"
               height="100%" />
          </g>
        </g>
        <g
           id="text_14">
          <!-- 0.998 -->
          <g
             transform="matrix(0.1,0,0,-0.1,108.37188,50.730128)"
             id="g262">
            <use
               xlink:href="#DejaVuSans-48"
               id="use252"
               x="0"
               y="0"
               width="100%"
               height="100%" />
            <use
               x="63.623047"
               xlink:href="#DejaVuSans-46"
               id="use254"
               y="0"
               width="100%"
               height="100%" />
            <use
               x="95.410156"
               xlink:href="#DejaVuSans-57"
               id="use256"
               y="0"
               width="100%"
               height="100%" />
            <use
               x="159.0332"
               xlink:href="#DejaVuSans-57"
               id="use258"
               y="0"
               width="100%"
               height="100%" />
            <use
               x="222.65625"
               xlink:href="#DejaVuSans-56"
               id="use260"
               y="0"
               width="100%"
               height="100%" />
          </g>
        </g>
      </g>
      <g
         id="ytick_5">
        <g
           id="line2d_14">
          <g
             id="g268">
            <use
               style="stroke:#000000;stroke-width:0.8"
               x="144"
               xlink:href="#m8e399e5a31"
               y="22.221819"
               id="use266"
               width="100%"
               height="100%" />
          </g>
        </g>
        <g
           id="text_15">
          <!-- 1.000 -->
          <g
             transform="matrix(0.1,0,0,-0.1,108.37188,26.021037)"
             id="g281">
            <use
               xlink:href="#DejaVuSans-49"
               id="use271"
               x="0"
               y="0"
               width="100%"
               height="100%" />
            <use
               x="63.623047"
               xlink:href="#DejaVuSans-46"
               id="use273"
               y="0"
               width="100%"
               height="100%" />
            <use
               x="95.410156"
               xlink:href="#DejaVuSans-48"
               id="use275"
               y="0"
               width="100%"
               height="100%" />
            <use
               x="159.0332"
               xlink:href="#DejaVuSans-48"
               id="use277"
               y="0"
               width="100%"
               height="100%" />
            <use
               x="222.65625"
               xlink:href="#DejaVuSans-48"
               id="use279"
               y="0"
               width="100%"
               height="100%" />
          </g>
        </g>
      </g>
      <g
         id="text_16">
        <!-- Fit $R^2$ value -->
        <defs
           id="defs291">
          <path
             d="m 9.8125,72.90625 h 41.890625 v -8.3125 H 19.671875 V 43.109375 h 28.90625 V 34.8125 H 19.671875 V 0 H 9.8125 Z"
             id="DejaVuSans-70" />
          <path
             d="M 9.421875,54.6875 H 18.40625 V 0 H 9.421875 Z m 0,21.296875 H 18.40625 V 64.59375 H 9.421875 Z"
             id="DejaVuSans-105" />
          <path
             d="M 18.3125,70.21875 V 54.6875 h 18.5 v -6.984375 h -18.5 v -29.6875 q 0,-6.6875 1.828125,-8.59375 1.828125,-1.90625 7.453125,-1.90625 H 36.8125 V 0 H 27.59375 Q 17.1875,0 13.234375,3.875 9.28125,7.765625 9.28125,18.015625 v 29.6875 H 2.6875 V 54.6875 h 6.59375 v 15.53125 z"
             id="DejaVuSans-116" />
          <path
             d="m 25.203125,64.796875 -4.984375,-25.875 h 12.6875 q 7.46875,0 12.078125,4.125 4.625,4.125 4.625,10.765625 0,5.3125 -3.109375,8.140625 -3.09375,2.84375 -8.90625,2.84375 z M 43.3125,35.015625 q 3.125,-0.734375 5.203125,-3.625 2.078125,-2.875 4.8125,-11.46875 L 59.515625,0 H 49.125 l -5.71875,18.703125 q -2.1875,7.21875 -5.078125,9.65625 Q 35.453125,30.8125 29.5,30.8125 H 18.609375 L 12.59375,0 H 2.6875 l 14.203125,72.90625 h 22.21875 q 10.109375,0 15.5,-4.578125 5.40625,-4.5625 5.40625,-13.15625 0,-7.609375 -4.59375,-13.1875 -4.59375,-5.5625 -12.109375,-6.96875 z"
             id="DejaVuSans-Oblique-82" />
          <path
             d="M 2.984375,54.6875 H 12.5 L 29.59375,8.796875 46.6875,54.6875 h 9.515625 L 35.6875,0 H 23.484375 Z"
             id="DejaVuSans-118" />
          <path
             d="m 34.28125,27.484375 q -10.890625,0 -15.09375,-2.484375 -4.203125,-2.484375 -4.203125,-8.5 0,-4.78125 3.15625,-7.59375 3.15625,-2.796875 8.5625,-2.796875 7.484375,0 12,5.296875 4.515625,5.296875 4.515625,14.078125 v 2 z m 17.921875,3.71875 V 0 H 43.21875 v 8.296875 q -3.078125,-4.96875 -7.671875,-7.34375 -4.59375,-2.375 -11.234375,-2.375 -8.390625,0 -13.359375,4.71875 Q 6,8.015625 6,15.921875 q 0,9.21875 6.171875,13.90625 6.1875,4.6875 18.4375,4.6875 H 43.21875 v 0.890625 q 0,6.203125 -4.078125,9.59375 -4.078125,3.390625 -11.453125,3.390625 -4.6875,0 -9.140625,-1.125 -4.4375,-1.125 -8.53125,-3.375 v 8.3125 q 4.921875,1.90625 9.5625,2.84375 Q 24.21875,56 28.609375,56 q 11.875,0 17.734375,-6.15625 5.859375,-6.140625 5.859375,-18.640625 z"
             id="DejaVuSans-97" />
        </defs>
        <g
           transform="matrix(0,-0.14,-0.14,0,101.46031,112.66)"
           id="g317">
          <use
             transform="translate(0,0.765625)"
             xlink:href="#DejaVuSans-70"
             id="use293"
             x="0"
             y="0"
             width="100%"
             height="100%" />
          <use
             transform="translate(57.519531,0.765625)"
             xlink:href="#DejaVuSans-105"
             id="use295"
             x="0"
             y="0"
             width="100%"
             height="100%" />
          <use
             transform="translate(85.302734,0.765625)"
             xlink:href="#DejaVuSans-116"
             id="use297"
             x="0"
             y="0"
             width="100%"
             height="100%" />
          <use
             transform="translate(124.51172,0.765625)"
             xlink:href="#DejaVuSans-32"
             id="use299"
             x="0"
             y="0"
             width="100%"
             height="100%" />
          <use
             transform="translate(156.29883,0.765625)"
             xlink:href="#DejaVuSans-Oblique-82"
             id="use301"
             x="0"
             y="0"
             width="100%"
             height="100%" />
          <use
             transform="matrix(0.7,0,0,0.7,232.79802,39.046875)"
             xlink:href="#DejaVuSans-50"
             id="use303"
             x="0"
             y="0"
             width="100%"
             height="100%" />
          <use
             transform="translate(280.06853,0.765625)"
             xlink:href="#DejaVuSans-32"
             id="use305"
             x="0"
             y="0"
             width="100%"
             height="100%" />
          <use
             transform="translate(311.85564,0.765625)"
             xlink:href="#DejaVuSans-118"
             id="use307"
             x="0"
             y="0"
             width="100%"
             height="100%" />
          <use
             transform="translate(371.03533,0.765625)"
             xlink:href="#DejaVuSans-97"
             id="use309"
             x="0"
             y="0"
             width="100%"
             height="100%" />
          <use
             transform="translate(432.31462,0.765625)"
             xlink:href="#DejaVuSans-108"
             id="use311"
             x="0"
             y="0"
             width="100%"
             height="100%" />
          <use
             transform="translate(460.09783,0.765625)"
             xlink:href="#DejaVuSans-117"
             id="use313"
             x="0"
             y="0"
             width="100%"
             height="100%" />
          <use
             transform="translate(523.47673,0.765625)"
             xlink:href="#DejaVuSans-101"
             id="use315"
             x="0"
             y="0"
             width="100%"
             height="100%" />
        </g>
      </g>
    </g>
    <g
       id="LineCollection_1">
      <path
         clip-path="url(#p84b1d83629)"
         d="M 184.58182,121.05818 H 996.21818"
         style="fill:none;stroke:#000000;stroke-width:1.5"
         id="path321" />
    </g>
    <g
       id="LineCollection_2">
      <path
         clip-path="url(#p84b1d83629)"
         d="M 184.58182,22.221818 H 996.21818"
         style="fill:none;stroke:#000000;stroke-width:1.5"
         id="path324" />
    </g>
    <g
       id="line2d_15">
      <defs
         id="defs328">
        <path
           d="m 0,-3 -0.673542,2.072949 H -2.85317 L -1.089814,0.354102 -1.763356,2.427051 0,1.145898 1.763356,2.427051 1.089814,0.354102 2.85317,-0.927051 H 0.673542 Z"
           id="m53634c561b"
           style="stroke:#1f77b4;stroke-linejoin:bevel" />
      </defs>
      <g
         clip-path="url(#p84b1d83629)"
         id="g348">
        <use
           style="fill:#1f77b4;stroke:#1f77b4;stroke-linejoin:bevel"
           x="184.58182"
           xlink:href="#m53634c561b"
           y="70.972626"
           id="use330"
           width="100%"
           height="100%" />
        <use
           style="fill:#1f77b4;stroke:#1f77b4;stroke-linejoin:bevel"
           x="286.03638"
           xlink:href="#m53634c561b"
           y="39.107655"
           id="use332"
           width="100%"
           height="100%" />
        <use
           style="fill:#1f77b4;stroke:#1f77b4;stroke-linejoin:bevel"
           x="387.49091"
           xlink:href="#m53634c561b"
           y="68.371056"
           id="use334"
           width="100%"
           height="100%" />
        <use
           style="fill:#1f77b4;stroke:#1f77b4;stroke-linejoin:bevel"
           x="488.94547"
           xlink:href="#m53634c561b"
           y="78.263054"
           id="use336"
           width="100%"
           height="100%" />
        <use
           style="fill:#1f77b4;stroke:#1f77b4;stroke-linejoin:bevel"
           x="590.40002"
           xlink:href="#m53634c561b"
           y="40.141914"
           id="use338"
           width="100%"
           height="100%" />
        <use
           style="fill:#1f77b4;stroke:#1f77b4;stroke-linejoin:bevel"
           x="691.85455"
           xlink:href="#m53634c561b"
           y="42.488018"
           id="use340"
           width="100%"
           height="100%" />
        <use
           style="fill:#1f77b4;stroke:#1f77b4;stroke-linejoin:bevel"
           x="793.30908"
           xlink:href="#m53634c561b"
           y="57.667843"
           id="use342"
           width="100%"
           height="100%" />
        <use
           style="fill:#1f77b4;stroke:#1f77b4;stroke-linejoin:bevel"
           x="894.76361"
           xlink:href="#m53634c561b"
           y="94.048576"
           id="use344"
           width="100%"
           height="100%" />
        <use
           style="fill:#1f77b4;stroke:#1f77b4;stroke-linejoin:bevel"
           x="996.2182"
           xlink:href="#m53634c561b"
           y="48.524551"
           id="use346"
           width="100%"
           height="100%" />
      </g>
    </g>
    <g
       id="patch_3">
      <path
         d="M 144,126 V 17.28"
         style="fill:none;stroke:#000000;stroke-width:0.8;stroke-linecap:square;stroke-linejoin:miter"
         id="path351" />
    </g>
    <g
       id="patch_4">
      <path
         d="M 1036.8,126 V 17.28"
         style="fill:none;stroke:#000000;stroke-width:0.8;stroke-linecap:square;stroke-linejoin:miter"
         id="path354" />
    </g>
    <g
       id="patch_5">
      <path
         d="m 144,126 h 892.8"
         style="fill:none;stroke:#000000;stroke-width:0.8;stroke-linecap:square;stroke-linejoin:miter"
         id="path357" />
    </g>
    <g
       id="patch_6">
      <path
         d="m 144,17.28 h 892.8"
         style="fill:none;stroke:#000000;stroke-width:0.8;stroke-linecap:square;stroke-linejoin:miter"
         id="path360" />
    </g>
  </g>
  <defs
     id="defs368">
    <clipPath
       id="p84b1d83629">
      <rect
         height="108.72"
         width="892.8"
         x="144"
         y="17.28"
         id="rect365" />
    </clipPath>
  </defs>
</svg>
